<svg xmlns="http://www.w3.org/2000/svg" xmlns:xlink="http://www.w3.org/1999/xlink" viewBox="0 0 1800 1300"><defs><linearGradient id="c" x1="398.27" x2="375.7" y1="760.6" y2="685.36" gradientUnits="userSpaceOnUse"><stop offset="0" stop-color="#ffffff" class="stopColorfff svgShape"/><stop offset="1" stop-color="#000000" class="stopColor000000 svgShape"/></linearGradient><linearGradient id="y" x1="396" x2="401.07" y1="747.68" y2="735.4" xlink:href="#c"/><linearGradient id="l" x1="444.76" x2="442.32" y1="764.94" y2="670.49" xlink:href="#c"/><linearGradient id="p" x1="424.23" x2="419.25" y1="768.59" y2="708.25" xlink:href="#c"/><linearGradient id="s" x1="469.43" x2="451.85" y1="729.12" y2="712.81" xlink:href="#c"/><linearGradient id="v" x1="494.15" x2="487.41" y1="758.89" y2="733.45" xlink:href="#c"/><linearGradient id="z" x1="348.37" x2="346.28" y1="713.99" y2="737.59" gradientUnits="userSpaceOnUse"><stop offset="0" stop-color="#f0c3a8" class="stopColorf0c3a8 svgShape"/><stop offset="1" stop-color="#ffffff" class="stopColorfff svgShape"/></linearGradient><linearGradient id="m" x1="398.27" x2="375.7" y1="760.6" y2="685.36" gradientUnits="userSpaceOnUse"><stop offset="0" stop-color="#bcc1e8" class="stopColorbcc1e8 svgShape"/><stop offset="1" stop-color="#bcc1e8" class="stopColorbcc1e8 svgShape"/></linearGradient><linearGradient id="C" x1="444.76" x2="442.32" y1="764.94" y2="670.49" xlink:href="#m"/><linearGradient id="E" x1="424.23" x2="419.25" y1="768.59" y2="708.25" xlink:href="#m"/><linearGradient id="G" x1="469.43" x2="451.85" y1="729.12" y2="712.81" xlink:href="#m"/><linearGradient id="I" x1="494.15" x2="487.41" y1="758.89" y2="733.45" xlink:href="#m"/><linearGradient id="K" x1="396" x2="401.07" y1="747.68" y2="735.4" xlink:href="#m"/><linearGradient id="L" x1="4129.7" x2="4127.54" y1="1380.52" y2="1404.85" gradientTransform="rotate(43.1 3202.85 -3091.19)" xlink:href="#z"/><linearGradient id="M" x1="1210.96" x2="1208.8" y1="1527.83" y2="1552.16" gradientTransform="matrix(-.95 -.3 -.3 .95 3245.4 -323.65)" xlink:href="#z"/><linearGradient id="N" x1="3546.61" x2="3545.07" y1="1093.8" y2="1111.12" gradientTransform="rotate(43.1 3202.85 -3091.19)" xlink:href="#z"/><filter id="a" width="66.66" height="32766" x="348.95" y="-8842" color-interpolation-filters="sRGB" filterUnits="userSpaceOnUse"><feFlood flood-color="#fff" result="bg"/><feBlend in="SourceGraphic" in2="bg"/></filter><filter id="b" width="42.27" height="32766" x="375.42" y="-8842" color-interpolation-filters="sRGB" filterUnits="userSpaceOnUse"><feFlood flood-color="#fff" result="bg"/><feBlend in="SourceGraphic" in2="bg"/></filter><filter id="d" width="34.84" height="32766" x="425.07" y="-8842" color-interpolation-filters="sRGB" filterUnits="userSpaceOnUse"><feFlood flood-color="#fff" result="bg"/><feBlend in="SourceGraphic" in2="bg"/></filter><filter id="e" width="23.29" height="32766" x="408.23" y="-8842" color-interpolation-filters="sRGB" filterUnits="userSpaceOnUse"><feFlood flood-color="#fff" result="bg"/><feBlend in="SourceGraphic" in2="bg"/></filter><filter id="f" width="64.44" height="32766" x="427.85" y="-8842" color-interpolation-filters="sRGB" filterUnits="userSpaceOnUse"><feFlood flood-color="#fff" result="bg"/><feBlend in="SourceGraphic" in2="bg"/></filter><filter id="g" width="119.97" height="32766" x="429.77" y="-8842" color-interpolation-filters="sRGB" filterUnits="userSpaceOnUse"><feFlood flood-color="#fff" result="bg"/><feBlend in="SourceGraphic" in2="bg"/></filter><filter id="i" width="66.66" height="112.03" x="348.95" y="658.43" color-interpolation-filters="sRGB" filterUnits="userSpaceOnUse"><feFlood flood-color="#fff" result="bg"/><feBlend in="SourceGraphic" in2="bg"/></filter><filter id="k" width="34.84" height="108.59" x="425.07" y="650.55" color-interpolation-filters="sRGB" filterUnits="userSpaceOnUse"><feFlood flood-color="#fff" result="bg"/><feBlend in="SourceGraphic" in2="bg"/></filter><filter id="o" width="23.29" height="89.3" x="408.23" y="685.98" color-interpolation-filters="sRGB" filterUnits="userSpaceOnUse"><feFlood flood-color="#fff" result="bg"/><feBlend in="SourceGraphic" in2="bg"/></filter><filter id="r" width="64.44" height="110.83" x="427.85" y="664.45" color-interpolation-filters="sRGB" filterUnits="userSpaceOnUse"><feFlood flood-color="#fff" result="bg"/><feBlend in="SourceGraphic" in2="bg"/></filter><filter id="u" width="119.97" height="78.58" x="429.77" y="700.7" color-interpolation-filters="sRGB" filterUnits="userSpaceOnUse"><feFlood flood-color="#fff" result="bg"/><feBlend in="SourceGraphic" in2="bg"/></filter><filter id="x" width="42.27" height="49.26" x="375.42" y="721.21" color-interpolation-filters="sRGB" filterUnits="userSpaceOnUse"><feFlood flood-color="#fff" result="bg"/><feBlend in="SourceGraphic" in2="bg"/></filter><mask id="A" width="66.66" height="112.03" x="348.95" y="658.43" maskUnits="userSpaceOnUse"><g filter="url(#i)" mask="url(#h)" fill="#000000" class="color000 svgShape"><path d="M415.61,770.47c-2.15-15.79-8.19-56.26-16.41-79-10.37-28.65-45.45-41.53-49.74-27.08-4.47,15.08,21.53,19,36,27.41,11.75,6.88,20.39,59.33,23.21,78.66Z" style="mix-blend-mode:multiply" fill="url(#c)"/></g></mask><mask id="B" width="34.84" height="108.59" x="425.07" y="650.55" maskUnits="userSpaceOnUse"><g filter="url(#k)" mask="url(#j)" fill="#000000" class="color000 svgShape"><path d="M458.38,653.53c-6.86-10.48-31.71,8.12-33.14,33.39s6.6,72.22,6.6,72.22l5.59-1.21s-10.64-63.85-1.16-74S465.53,664.47,458.38,653.53Z" style="mix-blend-mode:multiply" fill="url(#l)"/></g></mask><mask id="D" width="23.29" height="89.3" x="408.23" y="685.98" maskUnits="userSpaceOnUse"><g filter="url(#o)" mask="url(#n)" fill="#000000" class="color000 svgShape"><path d="M426,775.28c2.35-7.2,8.07-28,4.16-50-4.84-27.32-16.06-40.71-21-39.16-4.47,1.41,7.77,75.27,10.12,89.18Z" style="mix-blend-mode:multiply" fill="url(#p)"/></g></mask><mask id="F" width="64.44" height="110.83" x="427.85" y="664.45" maskUnits="userSpaceOnUse"><g filter="url(#r)" mask="url(#q)" fill="#000000" class="color000 svgShape"><path d="M439.31,775.28c15.33-28.06,57.51-106.4,52.58-110-6-4.4-27.88,8.61-47.73,43.54-16.07,28.27-16.62,56.67-16.24,66.46Z" style="mix-blend-mode:multiply" fill="url(#s)"/></g></mask><mask id="H" width="119.97" height="78.58" x="429.77" y="700.7" maskUnits="userSpaceOnUse"><g filter="url(#u)" mask="url(#t)" fill="#000000" class="color000 svgShape"><path d="M549.68,705.15c-3.31-7.34-31.42-7.38-69.75,13.82-30.4,16.8-45.29,48.08-50.16,60.31h16.41C480,757.69,552.22,710.77,549.68,705.15Z" style="mix-blend-mode:multiply" fill="url(#v)"/></g></mask><mask id="J" width="42.27" height="49.26" x="375.42" y="721.21" maskUnits="userSpaceOnUse"><g filter="url(#x)" mask="url(#w)" fill="#000000" class="color000 svgShape"><path d="M417.68,770.47a65.22,65.22,0,0,0-14.51-31.71C390,723.48,378.05,719.23,375.53,722c-1.92,2.11,21.38,33.53,32.64,48.46Z" style="mix-blend-mode:multiply" fill="url(#y)"/></g></mask></defs><g data-name="color copy" fill="#000000" class="color000 svgShape"><path fill="#9fd4e0" d="M1663.19,1027h-230a4.44,4.44,0,0,0-4.44,4.44h0a4.44,4.44,0,0,0,4.44,4.45h230a4.45,4.45,0,0,0,4.45-4.45h0A4.44,4.44,0,0,0,1663.19,1027Z" class="color9fd4e0 svgShape"/><path fill="#89cebc" d="M541,851.39A41.53,41.53,0,0,0,538.72,820a20.36,20.36,0,0,1,2.21-22,56.08,56.08,0,0,0,9.84-17.84c6-18.07,2.37-37.22-8.24-52.5-5.56-8-6.44-17.92-2-26.08a38.42,38.42,0,0,0,2.66-6.15c5.31-15.91-.33-33-13-44.22-7.32-6.47-9.12-16.62-3.94-24.19a47,47,0,0,0,5.9-11.41c8.42-25.23-7-53.09-34.37-62.24l-.08,0a7.34,7.34,0,0,1-5-9.16l.13-.4c10.78-32.3-9.36-68-44.89-79-33.36-10.34-70.08,6.67-80.3,37.15a56.23,56.23,0,0,0-2.76,22.29c1.24,16.29-9.43,30.92-26,35-28.63,7.08-52.49,27-62,55.39a82.52,82.52,0,0,0,.72,53.95,33.09,33.09,0,0,1-14.17,39.65,67.26,67.26,0,0,0-29,36.08c-9.16,27.46.78,57,22.86,76.08a12.72,12.72,0,0,1,4.06,13.74l0,.13c-4.75,14.22,3.92,29.92,19.37,35.07l.35.12a3.18,3.18,0,0,1,2.23,3.94v0c-6.68,20,5.53,42.13,27.28,49.39a44.91,44.91,0,0,0,9.9,2.11,22.82,22.82,0,0,1,17.79,11.78c10.86,20.37,30.08,37.1,54.84,45.08,46.21,14.88,97.09-8.11,111.55-50.39a77.65,77.65,0,0,0,4.17-26.93,37.91,37.91,0,0,1,16.48-32.28A41,41,0,0,0,541,851.39Z" class="color89cebc svgShape"/><path d="M564.77,860.17a36.15,36.15,0,0,0-4.32-27.69c-3.8-6.35-3.73-13.86.43-19.62a48.2,48.2,0,0,0,7.67-16.33c4.19-16.34-.51-33.09-11.28-46-5.63-6.77-7.15-15.5-3.72-23a32.77,32.77,0,0,0,2-5.59c3.69-14.38-2.68-29.23-15-38.42-7.13-5.33-9.5-14.21-5.32-21.2a40.27,40.27,0,0,0,4.55-10.43c5.85-22.8-10.17-46.61-35.77-53.18l-.08,0c-3.76-1-6.08-4.48-5.19-7.83,0-.12.07-.24.1-.36,7.49-29.19-13.42-59.69-46.55-67.45-31.11-7.3-63.32,9.81-70.44,37.37a48.64,48.64,0,0,0-.91,19.87c2.31,14.36-6.35,27.91-21.18,32.47-25.55,7.87-45.84,26.81-52.43,52.49A71.52,71.52,0,0,0,311.87,713c5.95,13.07,1.8,27.69-10.05,35.89a58.43,58.43,0,0,0-23.77,33.55c-6.36,24.82,4.82,50.45,26.28,66.08,4,2.93,5.83,7.58,4.69,11.94l0,.12c-3.3,12.85,5.72,26.26,20.15,30l.33.08a2.88,2.88,0,0,1,2.32,3.36v0c-4.64,18.09,8.07,37,28.39,42.2a42.37,42.37,0,0,0,9.16,1.32,21.34,21.34,0,0,1,17,9.43c11.35,17.43,30.06,31.17,53.17,36.85,43.14,10.61,87.8-12.58,97.93-50.82a66.8,66.8,0,0,0,1.85-24.07A32.69,32.69,0,0,1,552,879.4,35.45,35.45,0,0,0,564.77,860.17Z" style="mix-blend-mode:multiply" fill="#f4ffd4" class="colorf4ffd4 svgShape"/><path fill="#fcfbed" d="M496.3,950.25v36.44H359.22v12.88c0,111.45,91.19,202.65,202.64,202.65h671.59c111.46,0,202.65-91.2,202.65-202.65V950.25Z" class="colorfcfbed svgShape"/><path fill="#bbd4dd" d="M1101.45,247.72a.65.65,0,0,1-.65-.65V202.72a.65.65,0,1,1,1.3,0v44.35A.65.65,0,0,1,1101.45,247.72Z" class="colorbbd4dd svgShape"/><path fill="#bbd4dd" d="M1201.67,300.5a.63.63,0,0,1-.3-.07l-100.22-52.78a.66.66,0,1,1,.61-1.16L1202,299.27a.65.65,0,0,1,.27.88A.64.64,0,0,1,1201.67,300.5Z" class="colorbbd4dd svgShape"/><path fill="#bbd4dd" d="M1001.23 300.5a.64.64 0 01-.58-.35.65.65 0 01.27-.88l100.23-52.78a.65.65 0 01.88.27.67.67 0 01-.27.89l-100.23 52.78A.63.63 0 011001.23 300.5zM1101.45 203.37a.65.65 0 01-.15-1.29l347.34-81a.67.67 0 01.42 0l176.54 80.94a.65.65 0 11-.54 1.19l-176.34-80.84L1101.6 203.35A.39.39 0 011101.45 203.37z" class="colorbbd4dd svgShape"/><path fill="#e6e6e6" d="M1415.77,948.84a2.28,2.28,0,0,1-1.62-3.9l65.09-65.61-65.08-64.05a2.31,2.31,0,0,1-.68-1.61,2.34,2.34,0,0,1,.66-1.63l65.12-65.78-65.11-65.66a2.28,2.28,0,0,1,0-3.24l65.08-64.55-65.09-65.39a2.3,2.3,0,0,1,0-3.23l65.12-66L1414.15,413a2.3,2.3,0,0,1,0-3.23l65.12-65.73-65.07-65.83a2.29,2.29,0,0,1,3.26-3.22l66.66,67.44a2.29,2.29,0,0,1,0,3.23L1419,411.41l65.1,65.13a2.3,2.3,0,0,1,0,3.23l-65.12,66,65.11,65.4a2.28,2.28,0,0,1,0,3.24L1419,679l65.1,65.64a2.29,2.29,0,0,1,0,3.23L1419,813.63l65.08,64a2.27,2.27,0,0,1,0,3.24l-66.71,67.24A2.3,2.3,0,0,1,1415.77,948.84Z" class="colore6e6e6 svgShape"/><rect width="82.44" height="82.44" x="1408.1" y="194.84" fill="#fcc14a" rx="3.19" class="colorfcc14a svgShape"/><path fill="#fcc14a" d="M1482.49,948.84h-66.72a2.29,2.29,0,0,1-2.29-2.29l.4-669.93a2.29,2.29,0,0,1,2.29-2.28h66.3a2.28,2.28,0,0,1,2.29,2.29l0,669.92a2.29,2.29,0,0,1-.68,1.62A2.26,2.26,0,0,1,1482.49,948.84Zm-64.43-4.58h62.13V278.92h-61.72Z" class="colorfcc14a svgShape"/><path fill="#fcc14a" d="M1482.49 948.84a2.3 2.3 0 01-1.63-.68l-66.71-67.24a2.28 2.28 0 010-3.24l65.08-64-65.1-65.76a2.3 2.3 0 010-3.23l65.1-65.64-65.09-64.56a2.27 2.27 0 01-.68-1.61 2.31 2.31 0 01.67-1.63l65.11-65.4-65.12-66a2.3 2.3 0 010-3.23l65.1-65.13-65.11-65.72a2.31 2.31 0 010-3.23l66.7-67.44a2.29 2.29 0 113.26 3.22L1419 344.07l65.12 65.73a2.28 2.28 0 010 3.23L1419 478.17l65.12 66a2.31 2.31 0 010 3.23L1419 612.81l65.09 64.55a2.29 2.29 0 010 3.24L1419 746.26 1484.11 812a2.31 2.31 0 01.67 1.63 2.28 2.28 0 01-.69 1.61L1419 879.33l65.09 65.61a2.28 2.28 0 01-1.62 3.9zM1625.33 271.71h0l-134.79-.4a2.29 2.29 0 01-2.28-2.29v-66.3a2.29 2.29 0 012.29-2.29l134.79 0a2.29 2.29 0 012.29 2.29v66.72a2.29 2.29 0 01-2.29 2.29zm-132.5-5l130.21.39V205l-130.21 0z" class="colorfcc14a svgShape"/><path fill="#fcc14a" d="M1558 271.71a2.26 2.26 0 01-1.61-.67l-67.45-66.7a2.29 2.29 0 113.22-3.25l65.84 65.1 65.73-65.11a2.29 2.29 0 113.22 3.25L1559.6 271A2.25 2.25 0 011558 271.71zM1408.1 271.71a2.05 2.05 0 01-.49-.06L1101 205a2.29 2.29 0 01.49-4.52l306.65 0a2.29 2.29 0 012.29 2.29v66.72a2.29 2.29 0 01-2.29 2.29zM1122.75 205l283.06 61.56V205z" class="colorfcc14a svgShape"/><path fill="#fcc14a" d="M1352.64,259.64a2.28,2.28,0,0,1-1.6-.65l-54.35-53.18L1263.46,239a2.28,2.28,0,0,1-3.24,0L1228,206.85l-19.9,19.9a2.3,2.3,0,0,1-3.24,0l-20-20L1172.74,219a2.29,2.29,0,0,1-3.23,0l-12.62-12.62-7.88,7.88a2.3,2.3,0,0,1-3.24,0l-8.2-8.2-4.78,4.78a2.29,2.29,0,0,1-3.24-3.24l6.4-6.4a2.36,2.36,0,0,1,3.24,0l8.2,8.2,7.88-7.88a2.28,2.28,0,0,1,3.24,0l12.62,12.62,12.18-12.18a2.28,2.28,0,0,1,3.24,0l20,20,19.9-19.9a2.28,2.28,0,0,1,3.24,0l32.18,32.18,33.21-33.2a2.28,2.28,0,0,1,3.22,0l54.37,53.19,53.85-53.07a2.29,2.29,0,0,1,3.22,3.26L1354.25,259A2.29,2.29,0,0,1,1352.64,259.64Z" class="colorfcc14a svgShape"/><rect width="59.33" height="6.54" x="1419.13" y="223.93" fill="#0d232b" class="color0d232b svgShape"/><path fill="#fcc14a" d="M1415.77,197.13a2.37,2.37,0,0,1-.94-.2,2.3,2.3,0,0,1-1.15-3l33-73.07a2.28,2.28,0,0,1,2.08-1.35h0a2.29,2.29,0,0,1,2.08,1.33l33.69,73.07a2.29,2.29,0,1,1-4.15,1.92l-31.6-68.52-31,68.5A2.29,2.29,0,0,1,1415.77,197.13Z" class="colorfcc14a svgShape"/><path fill="#f29d7e" d="M1202.76,350H1001.23V299.85h201.53Zm-171.21-35.33a10.25,10.25,0,1,0,10.25,10.25A10.25,10.25,0,0,0,1031.55,314.68Zm45.73,0a10.25,10.25,0,1,0,10.25,10.25A10.24,10.24,0,0,0,1077.28,314.68Zm45.73,0a10.25,10.25,0,1,0,10.25,10.25A10.25,10.25,0,0,0,1123,314.68Zm45.73,0A10.25,10.25,0,1,0,1179,324.93,10.25,10.25,0,0,0,1168.74,314.68Z" class="colorf29d7e svgShape"/><path fill="#89cebc" d="M1395.23,812.68c1.94-8.39-.32-16.61-5.58-23.34-4-5.14-4.32-11.57-.53-16.82a40.55,40.55,0,0,0,6.7-14.57c3.3-14.3-2.12-28.26-13.27-38.49-5.84-5.35-7.75-12.7-4.76-19.36a26.47,26.47,0,0,0,1.66-4.93c2.91-12.59-4-24.8-16.52-31.7-7.23-4-10-11.42-6.24-17.72a33.32,33.32,0,0,0,3.94-9.28c4.61-20-12.21-39.07-37.56-42.7H1323c-3.73-.53-6.16-3.36-5.46-6.3,0-.1,0-.21.08-.31,5.9-25.55-16-50-48.8-54.08-30.78-3.81-61.44,13.32-67,37.44a36.63,36.63,0,0,0,.08,17.08c3,12.1-4.85,24.36-19.12,29.42-24.6,8.71-43.52,26.5-48.71,49-3.29,14.27-.56,28.3,6.77,40.47,6.45,10.71,3.11,23.54-8.07,31.48-10.91,7.74-18.78,18.29-21.61,30.55-5,21.72,7.17,42.77,28.92,54.48,4.07,2.19,6.07,6,5.17,9.84l0,.1c-2.6,11.25,6.88,22,21.17,24.07l.32,0c1.63.22,2.73,1.42,2.43,2.7v0c-3.66,15.84,9.69,31,29.81,33.9a47.34,47.34,0,0,0,9,.41c6.81-.34,13.33,2.29,17.13,6.74,11.94,14,30.9,24.33,53.78,27.39,42.69,5.71,85.23-17.6,93.26-51.09a50.38,50.38,0,0,0,.64-20.74c-1.72-9.63,2.25-19.31,11-26.21A31.53,31.53,0,0,0,1395.23,812.68Z" class="color89cebc svgShape"/><path d="M1441.7,814.71c1-7.5-1.52-14.64-6.57-20.31-3.86-4.34-4.6-10-1.73-14.82a35.16,35.16,0,0,0,4.69-13.2c1.78-12.79-3.95-24.83-14.35-33.29-5.45-4.43-7.65-10.82-5.57-16.84a24.78,24.78,0,0,0,1.07-4.44c1.56-11.26-5.36-21.68-16.65-27.13-6.55-3.17-9.48-9.57-6.72-15.32a29.34,29.34,0,0,0,2.7-8.39c2.48-17.85-13.48-33.87-35.65-35.77h-.06c-3.26-.27-5.58-2.65-5.19-5.27a2.89,2.89,0,0,0,0-.29c3.17-22.85-17.6-43.31-46.2-45.23-26.86-1.79-52,14.9-55.07,36.47a33.32,33.32,0,0,0,1.35,15.07c3.47,10.53-2.35,21.75-14.3,26.94-20.58,9-35.58,25.61-38.36,45.71-1.77,12.76,1.64,25,8.88,35.37,6.38,9.12,4.46,20.61-4.6,28.19-8.84,7.39-14.83,17.1-16.35,28.06-2.7,19.43,9.4,37.39,29.06,46.61,3.68,1.72,5.7,5,5.2,8.42v.09c-1.4,10.06,7.6,19.09,20.09,20.16l.28,0c1.42.11,2.46,1.11,2.3,2.26v0c-2,14.17,10.7,26.88,28.29,28.39a39.19,39.19,0,0,0,7.82-.1,18.65,18.65,0,0,1,15.29,5.08c11.37,11.76,28.51,19.88,48.5,21.42,37.29,2.86,72.26-19.88,76.68-49.86a45.59,45.59,0,0,0-1-18.33c-2.21-8.41.49-17.16,7.49-23.69A27,27,0,0,0,1441.7,814.71Z" style="mix-blend-mode:multiply" fill="#f4ffd4" class="colorf4ffd4 svgShape"/><path fill="#9fd4e0" d="M1505.45 947h-230a4.44 4.44 0 00-4.45 4.44h0a4.44 4.44 0 004.45 4.44h230a4.44 4.44 0 004.44-4.44h0A4.44 4.44 0 001505.45 947zM509 982.19H279a4.44 4.44 0 00-4.44 4.44h0a4.44 4.44 0 004.44 4.44H509a4.44 4.44 0 004.45-4.44h0A4.44 4.44 0 00509 982.19z" class="color9fd4e0 svgShape"/><ellipse cx="538.44" cy="1016.93" fill="#9fd4e0" rx="81.61" ry="9.7" class="color9fd4e0 svgShape"/><rect width="839.66" height="588.88" x="464.24" y="390.34" fill="#d8dfe2" rx="53.16" class="colord8dfe2 svgShape"/><rect width="843.39" height="595.3" x="456.82" y="394.09" fill="#0c252e" rx="56.22" class="color0c252e svgShape"/><rect width="839.66" height="588.88" x="460.82" y="394.15" fill="#184657" rx="49.9" class="color184657 svgShape"/><rect width="730.63" height="562.53" x="515.33" y="407.32" fill="#ffffff" class="colorfff svgShape"/><path d="M1247.46,971.36H513.83V405.82h733.63Zm-730.62-3h727.61V408.83H516.84Z" fill="#000000" class="color000 svgShape"/><path fill="#035e80" d="M1271.32,705.78h0a3,3,0,0,1-3-3V662.49a3,3,0,0,1,3-3h0a3,3,0,0,1,3,3v40.28A3,3,0,0,1,1271.32,705.78Z" class="color035e80 svgShape"/><ellipse cx="489.7" cy="682.63" rx="4.56" ry="5.08" fill="#000000" class="color000 svgShape"/><rect width="479.9" height="249.94" x="563.42" y="471.06" fill="#feebc3" class="colorfeebc3 svgShape"/><rect width="363.65" height="171.09" x="880.99" y="549.91" fill="#fcc14a" class="colorfcc14a svgShape"/><polygon fill="#fcc14a" points="881 549.91 971.91 471.53 971.91 549.91 881 549.91" class="colorfcc14a svgShape"/><rect width="272.74" height="78.38" x="971.91" y="471.53" fill="#e85f5b" class="colore85f5b svgShape"/><path fill="#45565c" d="M1244.64,478.91H971.91v-.84h272.73Zm0,6.35H971.91v.84h272.73Zm0,7.19H971.91v.84h272.73Zm0,7.19H971.91v.84h272.73Zm0,7.18H971.91v.85h272.73Zm0,8.18H971.91v-.84h272.73Zm0,6.35H971.91v.84h272.73Zm0,7.19H971.91v.84h272.73Zm0,7.19H971.91v.84h272.73Zm0,7.19H971.91v.84h272.73Z" class="color45565c svgShape"/><polygon fill="#fcc14a" points="971.91 549.91 1062.82 471.53 1062.82 549.91 971.91 549.91" class="colorfcc14a svgShape"/><polygon fill="#fcc14a" points="1062.82 549.91 1153.73 471.53 1153.73 549.91 1062.82 549.91" class="colorfcc14a svgShape"/><rect width="78.01" height="71.84" x="908.4" y="649.16" fill="#184657" class="color184657 svgShape"/><rect width="26.17" height="71.84" x="1024.92" y="649.16" fill="#184657" class="color184657 svgShape"/><rect width="164.91" height="71.84" x="1079.73" y="649.16" fill="#184657" class="color184657 svgShape"/><rect width="4.94" height="14.81" x="934.81" y="536.44" fill="#184657" class="color184657 svgShape"/><rect width="4.94" height="14.81" x="1024.77" y="536.44" fill="#184657" class="color184657 svgShape"/><rect width="4.94" height="14.81" x="1114.97" y="536.44" fill="#184657" class="color184657 svgShape"/><rect width="4.94" height="14.81" x="1025.26" y="591.14" fill="#184657" class="color184657 svgShape"/><rect width="4.94" height="14.81" x="1115.22" y="591.14" fill="#184657" class="color184657 svgShape"/><rect width="4.94" height="14.81" x="1197.77" y="591.14" fill="#184657" class="color184657 svgShape"/><circle cx="937.04" cy="596.5" r="21.31" fill="#0d232b" transform="rotate(-80.78 937.074 596.497)" class="color0d232b svgShape"/><path fill="#41b093" d="M948.67,589.51c-1.23,1.23-10,8-11.21,6.76s5.53-10,6.76-11.21a3.15,3.15,0,0,1,4.45,4.45Z" class="color41b093 svgShape"/><path fill="#41b093" d="M925.5,590.38c1.68.45,11.91,4.65,11.46,6.33s-11.41.2-13.08-.25a3.15,3.15,0,0,1,1.62-6.08Z" class="color41b093 svgShape"/><path fill="#41b093" d="M937.27,609.85c-.45-1.67-1.93-12.63-.25-13.08s5.88,9.78,6.33,11.46a3.15,3.15,0,0,1-6.08,1.62Z" class="color41b093 svgShape"/><path fill="#035e80" d="M937.09,611.17a14.61,14.61,0,1,1,14.61-14.61A14.63,14.63,0,0,1,937.09,611.17Zm0-28.35a13.74,13.74,0,1,0,13.74,13.74A13.76,13.76,0,0,0,937.09,582.82Z" class="color035e80 svgShape"/><path fill="#035e80" d="M937.09,604.08a7.53,7.53,0,1,1,7.52-7.52A7.53,7.53,0,0,1,937.09,604.08Zm0-14.17a6.65,6.65,0,1,0,6.65,6.65A6.65,6.65,0,0,0,937.09,589.91Z" class="color035e80 svgShape"/><rect width=".87" height="21.26" x="936.65" y="596.56" fill="#035e80" class="color035e80 svgShape"/><rect width=".87" height="21.26" x="946.76" y="589.21" fill="#035e80" transform="rotate(-72 948.446 600.43)" class="color035e80 svgShape"/><rect width="21.26" height=".87" x="932.71" y="587.52" fill="#035e80" transform="rotate(-53.99 943.382 587.964)" class="color035e80 svgShape"/><rect width=".87" height="21.26" x="930.41" y="577.33" fill="#035e80" transform="rotate(-36 930.848 587.963)" class="color035e80 svgShape"/><rect width="21.26" height=".87" x="916.35" y="599.41" fill="#035e80" transform="rotate(-17.99 926.998 599.838)" class="color035e80 svgShape"/><rect width="65.92" height=".79" x="914.32" y="688.35" fill="#0d232b" class="color0d232b svgShape"/><rect width="65.92" height=".79" x="914.32" y="708.66" fill="#0d232b" class="color0d232b svgShape"/><rect width="65.92" height=".79" x="914.32" y="701.89" fill="#0d232b" class="color0d232b svgShape"/><rect width="65.92" height=".79" x="914.32" y="681.44" fill="#0d232b" class="color0d232b svgShape"/><rect width="65.92" height=".79" x="914.32" y="654.37" fill="#0d232b" class="color0d232b svgShape"/><rect width="65.92" height=".79" x="914.32" y="674.68" fill="#0d232b" class="color0d232b svgShape"/><rect width="65.92" height=".79" x="914.32" y="661.14" fill="#0d232b" class="color0d232b svgShape"/><rect width="65.92" height=".79" x="914.32" y="715.42" fill="#0d232b" class="color0d232b svgShape"/><rect width="65.92" height=".79" x="914.32" y="667.91" fill="#0d232b" class="color0d232b svgShape"/><rect width="65.92" height=".79" x="914.32" y="695.12" fill="#0d232b" class="color0d232b svgShape"/><rect width="153.5" height=".79" x="1085.41" y="667.91" fill="#0d232b" class="color0d232b svgShape"/><rect width="153.5" height=".79" x="1085.41" y="715.42" fill="#0d232b" class="color0d232b svgShape"/><rect width="153.5" height=".79" x="1085.41" y="674.68" fill="#0d232b" class="color0d232b svgShape"/><rect width="153.5" height=".79" x="1085.41" y="661.14" fill="#0d232b" class="color0d232b svgShape"/><rect width="153.5" height=".79" x="1085.41" y="654.37" fill="#0d232b" class="color0d232b svgShape"/><rect width="153.5" height=".79" x="1085.41" y="681.44" fill="#0d232b" class="color0d232b svgShape"/><rect width="153.5" height=".79" x="1085.41" y="688.35" fill="#0d232b" class="color0d232b svgShape"/><rect width="153.5" height=".79" x="1085.41" y="708.66" fill="#0d232b" class="color0d232b svgShape"/><rect width="153.5" height=".79" x="1085.41" y="701.89" fill="#0d232b" class="color0d232b svgShape"/><rect width="153.5" height=".79" x="1085.41" y="695.12" fill="#0d232b" class="color0d232b svgShape"/><rect width="217.53" height="13.61" x="980.24" y="744.82" fill="#184657" class="color184657 svgShape"/><rect width="97.76" height="22.47" x="563.42" y="448.59" fill="#184657" class="color184657 svgShape"/><rect width="153.24" height="22.47" x="661.18" y="448.59" fill="#035e80" transform="rotate(180 737.795 459.825)" class="color035e80 svgShape"/><path d="M874.19,712.52,625.48,684.35a16.19,16.19,0,0,1-14.26-17.9l7.7-68a16.18,16.18,0,0,1,17.9-14.25l248.71,28.17a16.18,16.18,0,0,1,14.25,17.9l-7.7,68A16.17,16.17,0,0,1,874.19,712.52Z" style="mix-blend-mode:multiply" fill="#cbc7ff" opacity=".7" class="colorcbc7ff svgShape"/><path fill="#ffffff" d="M864.59,697.33l-256-45.2A18.24,18.24,0,0,1,593.79,631L605,567.71a18.26,18.26,0,0,1,21.15-14.8l256,45.21a18.24,18.24,0,0,1,14.8,21.14l-11.17,63.27A18.24,18.24,0,0,1,864.59,697.33Z" class="colorfff svgShape"/><rect width="296.47" height="100.75" x="597.85" y="576.97" fill="#e85f5b" rx="16.57" transform="rotate(10.01 746.31 627.599)" class="colore85f5b svgShape"/><path fill="#184657" d="M645.3,769.7l-15.45,54.19-50.62,24.77a56.37,56.37,0,0,1,66.07-79Z" class="color184657 svgShape"/><path fill="#f29d7e" d="M629.85,823.89H686.2c0,.14,0,.27,0,.41C668,824.49,629.85,823.89,629.85,823.89Z" class="colorf29d7e svgShape"/><path fill="#faf8dc" d="M674.55,789.59l-44.7,34.3L645.3,769.7A56.32,56.32,0,0,1,674.55,789.59Z" class="colorfaf8dc svgShape"/><path fill="#fcc14a" d="M686.2,823.89H629.85l44.7-34.3A56.1,56.1,0,0,1,686.2,823.89Z" class="colorfcc14a svgShape"/><path fill="#7ac4b2" d="M686.19,824.3a56,56,0,0,1-3.05,17.93l-53.29-18.34S668,824.49,686.19,824.3Z" class="color7ac4b2 svgShape"/><path fill="#ed6d53" d="M683.14,842.23a56.36,56.36,0,0,1-103.91,6.43l50.62-24.77Z" class="colored6d53 svgShape"/><path fill="#ffffff" d="M924.14,394.15H508.08c-26.1,0-47.26,23.59-47.26,52.68V930.35c0,29.09,21.16,52.68,47.26,52.68H554.7Z" opacity=".25" class="colorfff svgShape"/><rect width="186.56" height="6.9" x="655.77" y="614.76" fill="#ffffff" transform="rotate(10.01 749.303 618.42)" class="colorfff svgShape"/><rect width="128.48" height="6.9" x="681.85" y="633.03" fill="#ffffff" transform="rotate(10.01 746.306 636.746)" class="colorfff svgShape"/><rect width="122.2" height="14.43" x="1099.98" y="434.16" fill="#41b093" class="color41b093 svgShape"/><path fill="#f9d4d3" d="M762.36,767.55v12.73a43.61,43.61,0,0,0-30.88,74.4l-9,9a56.34,56.34,0,0,1,39.91-96.12Z" class="colorf9d4d3 svgShape"/><path fill="#e85f5b" d="M818.71,823.89a56.35,56.35,0,0,1-96.26,39.78l9-9a43.61,43.61,0,1,0,30.88-74.4V767.55A56.35,56.35,0,0,1,818.71,823.89Z" class="colore85f5b svgShape"/><path fill="#faf8dc" d="M806,823.89a43.61,43.61,0,1,1-43.61-43.61A43.61,43.61,0,0,1,806,823.89Z" class="colorfaf8dc svgShape"/><path fill="#b3dfd4" d="M938.65,857.47a56.35,56.35,0,1,1-45.25-89.92v12.73a43.62,43.62,0,1,0,35,69.6Z" class="colorb3dfd4 svgShape"/><path fill="#41b093" d="M949.74,823.89a56.11,56.11,0,0,1-11.09,33.58l-10.23-7.59a43.61,43.61,0,0,0-35-69.6V767.55A56.35,56.35,0,0,1,949.74,823.89Z" class="color41b093 svgShape"/><path fill="#faf8dc" d="M937,823.89a43.61,43.61,0,1,1-43.61-43.61A43.36,43.36,0,0,1,937,823.89Z" class="colorfaf8dc svgShape"/><path fill="#41b093" d="M1077.51,1027.86c0-71.24,57.75-217.56,129-217.56s129,146.32,129,217.56Z" class="color41b093 svgShape"/><rect width="217.53" height="101.71" x="980.24" y="799.66" fill="#c0e3eb" class="colorc0e3eb svgShape"/><path fill="#ed6d53" d="M1077.51,1027.86c0-71.24,57.75-217.56,129-217.56s129,146.32,129,217.56Z" class="colored6d53 svgShape"/><path d="M1243.83,823.54l-22.14,15.61a22.22,22.22,0,0,0-35.4,24.93l-85.4,60.18c-3.42,8.63-6.51,17.34-9.24,26l105.7-74.46a22.22,22.22,0,0,0,31.74-20.08c0-.75,0-1.48-.11-2.21l27.53-19.4A113,113,0,0,0,1243.83,823.54Z" style="mix-blend-mode:multiply" fill="#cbc7ff" opacity=".7" class="colorcbc7ff svgShape"/><path fill="#e85f5b" d="M1454.78,686.47,972.3,1026.41a8,8,0,0,1-11.09-1.93h0a8,8,0,0,1,1.92-11.09l482.48-339.93a8,8,0,0,1,11.09,1.92h0A8,8,0,0,1,1454.78,686.47Z" class="colore85f5b svgShape"/><circle cx="1206.87" cy="852" r="22.22" fill="#faf8dc" transform="rotate(-45 1206.87 851.998)" class="colorfaf8dc svgShape"/><circle cx="1206.87" cy="855.45" r="14.19" fill="#cbc7ff" transform="rotate(-76.72 1206.82 855.458)" style="mix-blend-mode:multiply" opacity=".7" class="colorcbc7ff svgShape"/><circle cx="1206.87" cy="852" r="14.19" fill="#ed6d53" class="colored6d53 svgShape"/><path fill="#41b093" d="M607.21,1015.12c0-4.36-29.73-7.9-66.41-7.9s-66.41,3.54-66.41,7.9c0,.61.58,1.2,1.67,1.77,4.21,3.81,31.59,6.74,64.74,6.74s60.53-2.93,64.74-6.74C606.63,1016.32,607.21,1015.73,607.21,1015.12Z" class="color41b093 svgShape"/><path d="M607.21,1015.12c0-4.36-29.73-7.9-66.41-7.9s-66.41,3.54-66.41,7.9c0,.61.58,1.2,1.67,1.77,4.21,3.81,31.59,6.74,64.74,6.74s60.53-2.93,64.74-6.74C606.63,1016.32,607.21,1015.73,607.21,1015.12Z" style="mix-blend-mode:multiply" fill="#cbc7ff" opacity=".7" class="colorcbc7ff svgShape"/><path fill="#7ac4b2" d="M474.39,982.59v32.1c0,4.36,29.73,7.9,66.41,7.9s66.41-3.54,66.41-7.9v-32.1Z" class="color7ac4b2 svgShape"/><ellipse cx="540.8" cy="982.59" fill="#afdcd1" rx="66.41" ry="7.9" class="colorafdcd1 svgShape"/><ellipse cx="540.8" cy="981.85" fill="#8ecdbe" rx="65.31" ry="7.77" class="color8ecdbe svgShape"/><ellipse cx="540.8" cy="981.85" rx="65.31" ry="7.77" style="mix-blend-mode:multiply" fill="#cbc7ff" class="colorcbc7ff svgShape"/><path fill="#e85f5b" d="M607.21,979.82c0-4.36-29.73-7.9-66.41-7.9s-66.41,3.54-66.41,7.9c0,.61.58,1.2,1.67,1.77,4.21,3.8,31.59,6.74,64.74,6.74s60.53-2.94,64.74-6.74C606.63,981,607.21,980.43,607.21,979.82Z" class="colore85f5b svgShape"/><path d="M607.21,979.82c0-4.36-29.73-7.9-66.41-7.9s-66.41,3.54-66.41,7.9c0,.61.58,1.2,1.67,1.77,4.21,3.8,31.59,6.74,64.74,6.74s60.53-2.94,64.74-6.74C606.63,981,607.21,980.43,607.21,979.82Z" style="mix-blend-mode:multiply" fill="#cbc7ff" opacity=".7" class="colorcbc7ff svgShape"/><path fill="#e85f5b" d="M474.39,947.29v32.09c0,4.37,29.73,7.9,66.41,7.9s66.41-3.53,66.41-7.9V947.29Z" class="colore85f5b svgShape"/><ellipse cx="540.8" cy="947.29" fill="#f4a798" rx="66.41" ry="7.9" class="colorf4a798 svgShape"/><ellipse cx="540.8" cy="946.55" fill="#f0836d" rx="65.31" ry="7.77" class="colorf0836d svgShape"/><rect width="18.89" height="13.61" x="563.42" y="744.82" fill="#184657" class="color184657 svgShape"/><rect width="18.88" height="13.61" x="693.24" y="744.82" fill="#184657" class="color184657 svgShape"/><rect width="18.89" height="13.61" x="818.56" y="744.82" fill="#184657" class="color184657 svgShape"/><rect width="14.18" height="14.18" x="563.42" y="494.03" fill="#5190a7" class="color5190a7 svgShape"/><rect width="14.18" height="14.18" x="563.42" y="517.8" fill="#5190a7" class="color5190a7 svgShape"/><rect width="14.18" height="14.18" x="563.42" y="541.57" fill="#fdd482" class="colorfdd482 svgShape"/><path d="M419.79,789s20.67-41.06,61.81-55.49,68.78-9.74,70.84-2-132.38,63.28-132.38,63.28Z" style="mix-blend-mode:multiply" fill="#cbc7ff" class="colorcbc7ff svgShape"/><path fill="#184657" d="M265.82,740.38c-6.11-3.42-6.16-10.15-2.86-13.68s3.37-5.59,9.3-10,8.45-3.53,14.46-4.67,7-4.36,11.14-9,8.17-6.92,14.76-7.63,8.45.87,15.28-1.93,5.7-7,13-8.08c8.71-1.26,12.06,6.17,11.78,13.07S338.58,719,338.58,719a80.44,80.44,0,0,0-6.54,6.19c-4.68,4.74-7.31,5.6-15,4.74s-11.48,1.36-14.73,4-8.61,3.55-13.24,2.28-8.1-.29-12.21,2.32S268,741.63,265.82,740.38Z" class="color184657 svgShape"/><path d="M347,702.39l-15.22,6.41c-7.78,1.42-9.92-1.12-13.8,2.61s-7.73,7.59-11.5,8.23-9.47-1.57-14.22,1.38-6,7.76-11,9.44-7.27.46-11.07,4.7a11.88,11.88,0,0,0-2.65,5.79,14.51,14.51,0,0,0,9.27-2.39c4.11-2.61,7.58-3.59,12.21-2.32s10,.38,13.24-2.28,7.07-4.89,14.73-4,10.29,0,15-4.74a80.44,80.44,0,0,1,6.54-6.19,99.72,99.72,0,0,0,10-11.8Z" style="mix-blend-mode:multiply" fill="#cbc7ff" class="colorcbc7ff svgShape"/><path fill="#ed6d53" d="M342.84,707.88a5.52,5.52,0,1,1-6.21-4.74A5.53,5.53,0,0,1,342.84,707.88Z" class="colored6d53 svgShape"/><path fill="#bd422a" d="M340.25,708.23a2.91,2.91,0,1,1-3.27-2.5A2.9,2.9,0,0,1,340.25,708.23Z" class="colorbd422a svgShape"/><path fill="#f29d7e" d="M354.53,755.71a87.11,87.11,0,0,1,13.66.89,36.4,36.4,0,0,0,0-8.41c-.09-1.61-1.75-3.57-3-5.39a9.74,9.74,0,0,0-5.56-4c-1.3-.33-2-.74-2.5-2.63-.89-3.7-3.53-23.74-3.53-23.74l-16.1.17s3,19.79,2.46,23c-.46,3-5.27,4.53-11.14,7.18,3.34,4.44,4.39,10.93,3.85,16.47C339.08,754.47,347.46,755.85,354.53,755.71Z" class="colorf29d7e svgShape"/><path d="M357.36,737.1a6.28,6.28,0,0,1-.28-.89c-.89-3.7-3.52-23.74-3.52-23.74l-16.11.17s3,19.79,2.46,23a3.29,3.29,0,0,1-.63,1.45Z" style="mix-blend-mode:multiply" fill="url(#z)"/><path d="M348.36,724.86c1.46.3,5.63.36,6.87-.13-.74-6.29-1.68-12.26-1.68-12.26l-13.09.15C340.89,719,344.07,724,348.36,724.86Z" style="mix-blend-mode:multiply" fill="#cbc7ff" opacity=".58" class="colorcbc7ff svgShape"/><path fill="#f29d7e" d="M357.91,705.78c1,7.72-1.12,14.41-7.79,15.3-5.67.76-11.47-4.8-12.89-12.46s.65-14.37,8.53-15.45C357.08,691.63,356.88,698.06,357.91,705.78Z" class="colorf29d7e svgShape"/><path d="M341.64 702.31a8.08 8.08 0 013.08-1.25 8.3 8.3 0 013.33 0 .12.12 0 01.09.14.12.12 0 01-.12.09h0a14.31 14.31 0 00-3.2.26 9.51 9.51 0 00-1.55.39 15.48 15.48 0 00-1.51.57h0a.14.14 0 01-.16-.07A.11.11 0 01341.64 702.31zM357 699.64c-.38 0-.75 0-1.13 0a8.15 8.15 0 00-3.2.93.12.12 0 00.09.22h0c.52-.15 1-.31 1.56-.41a12 12 0 011.58-.22 11.25 11.25 0 011.16 0A1.41 1.41 0 01357 699.64z" style="mix-blend-mode:multiply" fill="#c3b9dd" class="colorc3b9dd svgShape"/><path d="M346.21 704.59a.75.75 0 11-.84-.64A.74.74 0 01346.21 704.59zM356.76 703.13a.75.75 0 11-.84-.64A.74.74 0 01356.76 703.13z" fill="#000000" class="color000 svgShape"/><path fill="#ed6d53" d="M357.84 705.24h-.17a2.42 2.42 0 00.47 4.81 25 25 0 00-.23-4.27C357.89 705.6 357.86 705.42 357.84 705.24zM348.07 708.67a2.42 2.42 0 11-2.72-2.08A2.42 2.42 0 01348.07 708.67z" class="colored6d53 svgShape"/><path d="M351.67,698.77c1,.94,4.71,3.43,5.81,3.61a10.91,10.91,0,0,0-8.21-10.06l-9.57,3.29-8,12,.45,3c11.08-.11,10.73-15.42,16.11-17.4A10.83,10.83,0,0,0,351.67,698.77Z" style="mix-blend-mode:multiply" fill="#cbc7ff" class="colorcbc7ff svgShape"/><path fill="#ed6d53" d="M351.9,703.19l2.43,3.38a.67.67,0,0,1-.43,1l-2.22.36Z" class="colored6d53 svgShape"/><path fill="#ffffff" d="M355.62,710.56c.13,1-1.2,2.06-3,2.3s-3.33-.41-3.47-1.44,1.43-.46,3.21-.69S355.48,709.53,355.62,710.56Z" class="colorfff svgShape"/><path fill="#184657" d="M361.58,693.81c-1.73-3.79-7-9.07-14.74-7.1a15.42,15.42,0,0,0-9.3,6.66L330.3,709c11.09-.11,11.56-12.57,14.46-14.36a22.47,22.47,0,0,1,3.75-1.67c2.59,6.14,7.76,2.91,9.55,4.52,2.39,2.16,1.39,9.24,2,9.16S364.24,699.61,361.58,693.81Z" class="color184657 svgShape"/><path fill="#f29d7e" d="M350.49,742.14c-.51,9.87,13.23,27.18,31.26,40.07s33.37,21.71,42.37,25.76,13.23,5.5,13.93,4.14c.34-.66-.75-1.28-1.95-1.74,1.25.28,2.54.39,2.86-.23s-.8-1.4-2-2c1.28.4,2.69.62,3.09-.15s-1.18-1.72-2.74-2.38c1.22.33,2.46.48,2.73-.21.48-1.24-6.2-3.82-8.26-4.58,1,.35,2.82,1,3.78,1.22a1.28,1.28,0,0,0,1.44-.89c.09-.42-.37-.65-1.92-1.35-3.1-1.4-10.53-3.87-26.24-13.46s-33.18-25.06-39.53-35.76c-.88-1.49-2.36-4.31-3.19-5.79C361.62,741.54,351,731.68,350.49,742.14Z" class="colorf29d7e svgShape"/><path fill="#ed6d53" d="M382.91,783q3,2.15,5.92,4.12a3.65,3.65,0,0,0,.4-.62,3.61,3.61,0,0,0-6.32-3.5Z" class="colored6d53 svgShape"/><path d="M371.83,756.83C376.09,764.6,375,777,375,777s-6.82-6-9.15-8.4S371.83,756.83,371.83,756.83Z" style="mix-blend-mode:multiply" fill="#cbc7ff" class="colorcbc7ff svgShape"/><polygon fill="#1b4e61" points="404.47 976.51 402.41 977.2 403.85 981.5 405.59 979.98 404.47 976.51" class="color1b4e61 svgShape"/><path fill="#f29d7e" d="M420.49,980.43a4.86,4.86,0,0,1-2,1.13c-1.61.54-4.64.81-8.58-1.43s-6.3-2.78-9.62-2.83c-3.88-11.2-15.23-37.9-24.74-66.26-7.41-22.08-12.33-39.43-18-59.57L376.76,844s3.58,16.62,7.53,33.15c4,16.76,5.09,20.52,11.52,44,6.25,22.78,14.75,49.68,16,51.65C414.69,977.41,419.83,979.14,420.49,980.43Z" class="colorf29d7e svgShape"/><path fill="#236780" d="M419.93,981.41a9.37,9.37,0,0,1-7.6.31c-3.2-1.24-7-3.75-9.64-3.89.24,1,.67,2,1.16,3.67a9.67,9.67,0,0,1-2.14-.16s-.5-1.49-1.38-4c3.32.05,5.74.63,9.62,2.83s7,2,8.58,1.43a4.86,4.86,0,0,0,2-1.13C420.66,980.77,420.52,981.08,419.93,981.41Z" class="color236780 svgShape"/><polygon fill="#1b4e61" points="291.87 972.28 289.81 971.6 288.39 975.91 290.7 975.73 291.87 972.28" class="color1b4e61 svgShape"/><path fill="#f29d7e" d="M302.36,985a4.81,4.81,0,0,1-2.25-.27c-1.6-.53-4.2-2.12-6-6.28s-3.38-6-6-8c3.6-11.29,13.65-43.39,17.22-60.87,4.39-21.47,7.95-48,14.23-67.62l19,4.83a231.42,231.42,0,0,0-6.42,23.83c-3.39,15.17-5.69,28.82-15.32,54.77-8.21,22.15-16.6,46-16.8,48.29C299.52,979.12,302.61,983.58,302.36,985Z" class="colorf29d7e svgShape"/><path d="M360.9 862.82a26.93 26.93 0 018.21-5 22.75 22.75 0 0110.41-1C377.46 847.69 376 841 376 841l-19.18 7.5C358.22 853.4 359.56 858.14 360.9 862.82zM338.15 849.36l-19-4.82c-1.42 4.41-2.69 9.19-3.87 14.18a29.09 29.09 0 0114.06 1.88 18.47 18.47 0 014.77 2.61C336.42 854.29 338.15 849.36 338.15 849.36z" style="mix-blend-mode:multiply" fill="#cccccc" class="colorccc svgShape"/><path fill="#236780" d="M301.33,985.46a9.38,9.38,0,0,1-6.28-4.3c-1.82-2.91-3.33-7.17-5.39-8.89-.42,1-.66,2-1.27,3.64a9.74,9.74,0,0,1-1.61-1.41l1.3-4.07c2.63,2,4.22,4,6,8s4.42,5.75,6,6.28a4.81,4.81,0,0,0,2.25.27C302.29,985.39,302,985.55,301.33,985.46Z" class="color236780 svgShape"/><path fill="#faf8dc" d="M330.73,778.83c-.93,5.44-8.07,11.3-13.42,26.85s-6.63,49.21-6.63,49.21,11.73,2.63,36.88,2c24.74-.67,34-3.06,34-3.06s.42-15.38-2.89-38.07-12.41-30.34-13.43-37.39Z" class="colorfaf8dc svgShape"/><path fill="#035e80" d="M348.82 835.21c-14.9.4-27.16.16-36.72-.31-.25 2.58-.47 5.07-.65 7.35 6.43.33 13.88.53 22.38.53 4.73 0 9.79-.06 15.19-.21 12.92-.35 23.57-1 32.22-1.63-.13-2.21-.29-4.68-.52-7.37C371.93 834.27 361.31 834.87 348.82 835.21zM348.82 821c-14 .38-25.66.19-34.94-.23-.39 2.42-.73 4.89-1 7.34 6.1.29 13.08.47 21 .47q7.1 0 15.19-.21c12.35-.34 22.62-.9 31.06-1.55-.25-2.33-.55-4.78-.89-7.33C370.71 820.14 360.59 820.69 348.82 821zM348.82 806.81c-12.48.34-23.11.22-31.85-.1-.69 2.18-1.31 4.66-1.87 7.31 5.55.23 11.79.37 18.73.37q7.1 0 15.19-.21c11.44-.31 21.11-.82 29.17-1.4-.47-2.64-1-5.06-1.62-7.29C368.65 806.05 359.4 806.53 348.82 806.81zM348.82 792.62c-9.68.26-18.25.25-25.68.08a77.16 77.16 0 00-3.62 7.28c4.38.13 9.15.21 14.31.21 4.73 0 9.79-.06 15.19-.21 9.73-.26 18.16-.67 25.43-1.14a76.28 76.28 0 00-3.11-7.2C364.65 792.05 357.15 792.39 348.82 792.62zM330.73 778.83c-.36 2.12-1.68 4.31-3.46 7.12q3.17 0 6.56 0c4.73 0 9.79-.06 15.19-.21q10.38-.27 18.84-.75a21.93 21.93 0 01-2.62-6.71zM381.51 847.71c-8.94.72-19.82 1.35-32.69 1.7-15.49.41-28.12.13-37.84-.37-.22 3.6-.3 5.85-.3 5.85s9.13 2.05 28.56 2.06q4.69 0 9.78-.18l4.66-.14c20.16-.86 27.88-2.85 27.88-2.85S381.61 851.62 381.51 847.71z" class="color035e80 svgShape"/><path fill="#0d232b" d="M359.82,738.84c2.07,1.51,6.45,14.65,6.45,14.65l5.56.87s-3.64-9.2-6.3-12A12,12,0,0,0,359.82,738.84Z" class="color0d232b svgShape"/><path fill="#0d232b" d="M327.51,765.06l3.05-9.35A129.72,129.72,0,0,1,354.19,753c13.43-.34,16.83.34,16.83.34s4.84,5.95,2.8,11.81a11.1,11.1,0,0,1-7.22,7.06l-1.36,6.12s-4.42,1.7-17.51,1.53-17-1-17-1Z" class="color0d232b svgShape"/><path fill="#ed6d53" d="M325.23 897.73a3.62 3.62 0 11-2.3-4.57A3.61 3.61 0 01325.23 897.73zM388.33 896.13a3.62 3.62 0 11-4.58-2.28A3.61 3.61 0 01388.33 896.13z" class="colored6d53 svgShape"/><path fill="#184657" d="M300.11 984.74a4.81 4.81 0 002.25.27c.15-.87-.93-2.86-1.69-5.5a5.25 5.25 0 01-4.57-2.22c-.86-3.28-4.38-7.52-7.32-9.06-.26.8-.49 1.54-.7 2.2 2.63 2 4.22 4 6 8S298.51 984.21 300.11 984.74zM418.53 981.56a4.86 4.86 0 002-1.13c-.34-.67-1.88-1.46-3.69-2.7a5.35 5.35 0 01-5.41.93c-2.71-2.41-8.57-4.07-11.79-3.39l.73 2c3.32.05 5.74.63 9.62 2.83S416.92 982.1 418.53 981.56z" class="color184657 svgShape"/><path d="M349,801.3c11.24,6.32,21.41,11.37,29.81,15.1l-.09-.69a84.24,84.24,0,0,0-3.08-13.54c-16.47-7.9-35-21.14-42.4-30.95-1-1.39-2.81-4-3.8-5.41-.52-.3-1.12-.67-1.78-1.08l-.1.33,3.22,13.77c-.35,2.07-1.62,4.21-3.34,6.93A116.74,116.74,0,0,0,349,801.3Z" style="mix-blend-mode:multiply" fill="#cbc7ff" class="colorcbc7ff svgShape"/><polygon fill="#ed6d53" points="451.24 831.69 405.35 831.69 396.5 769.53 460.08 769.53 451.24 831.69" class="colored6d53 svgShape"/><rect width="53.05" height="1.47" x="401.71" y="806.22" fill="#f0846f" class="colorf0846f svgShape"/><rect width="52.83" height="1.25" x="401.82" y="807.68" style="mix-blend-mode:multiply" fill="#cbc7ff" class="colorcbc7ff svgShape"/><path d="M397.07,769.53c-.13.48-.25,1-.36,1.43L400,794.28a32.71,32.71,0,0,0,56.35,1.3l3.7-26.05Z" style="mix-blend-mode:multiply" fill="#cbc7ff" class="colorcbc7ff svgShape"/><circle cx="428.58" cy="769.53" r="32.72" fill="#ef7d66" class="coloref7d66 svgShape"/><circle cx="428.58" cy="769.53" r="26.18" fill="#283b42" class="color283b42 svgShape"/><path fill="#45565c" d="M416.32 779.28a3.56 3.56 0 11-3.56-3.55A3.56 3.56 0 01416.32 779.28zM442.18 786.63a2.62 2.62 0 11-2.62-2.61A2.62 2.62 0 01442.18 786.63zM428.58 786.63a4.92 4.92 0 11-4.92-4.92A4.93 4.93 0 01428.58 786.63z" class="color45565c svgShape"/><path fill="#41b093" d="M415.61,770.47c-2.15-15.79-8.19-56.26-16.41-79-10.37-28.65-45.45-41.53-49.74-27.08-4.47,15.08,21.53,19,36,27.41,11.75,6.88,20.39,59.33,23.21,78.66Z" class="color41b093 svgShape"/><g mask="url(#A)" fill="#000000" class="color000 svgShape"><path d="M415.61,770.47c-2.15-15.79-8.19-56.26-16.41-79-10.37-28.65-45.45-41.53-49.74-27.08-4.47,15.08,21.53,19,36,27.41,11.75,6.88,20.39,59.33,23.21,78.66Z" style="mix-blend-mode:multiply" fill="url(#m)"/></g><path fill="#41b093" d="M458.38,653.53c-6.86-10.48-31.71,8.12-33.14,33.39s6.6,72.22,6.6,72.22l5.59-1.21s-10.64-63.85-1.16-74S465.53,664.47,458.38,653.53Z" class="color41b093 svgShape"/><g mask="url(#B)" fill="#000000" class="color000 svgShape"><path d="M458.38,653.53c-6.86-10.48-31.71,8.12-33.14,33.39s6.6,72.22,6.6,72.22l5.59-1.21s-10.64-63.85-1.16-74S465.53,664.47,458.38,653.53Z" style="mix-blend-mode:multiply" fill="url(#C)"/></g><path fill="#41b093" d="M426,775.28c2.35-7.2,8.07-28,4.16-50-4.84-27.32-16.06-40.71-21-39.16-4.47,1.41,7.77,75.27,10.12,89.18Z" class="color41b093 svgShape"/><g mask="url(#D)" fill="#000000" class="color000 svgShape"><path d="M426,775.28c2.35-7.2,8.07-28,4.16-50-4.84-27.32-16.06-40.71-21-39.16-4.47,1.41,7.77,75.27,10.12,89.18Z" style="mix-blend-mode:multiply" fill="url(#E)"/></g><path fill="#41b093" d="M439.31,775.28c15.33-28.06,57.51-106.4,52.58-110-6-4.4-27.88,8.61-47.73,43.54-16.07,28.27-16.62,56.67-16.24,66.46Z" class="color41b093 svgShape"/><g mask="url(#F)" fill="#000000" class="color000 svgShape"><path d="M439.31,775.28c15.33-28.06,57.51-106.4,52.58-110-6-4.4-27.88,8.61-47.73,43.54-16.07,28.27-16.62,56.67-16.24,66.46Z" style="mix-blend-mode:multiply" fill="url(#G)"/></g><path fill="#41b093" d="M549.68,705.15c-3.31-7.34-31.42-7.38-69.75,13.82-30.4,16.8-45.29,48.08-50.16,60.31h16.41C480,757.69,552.22,710.77,549.68,705.15Z" class="color41b093 svgShape"/><g mask="url(#H)" fill="#000000" class="color000 svgShape"><path d="M549.68,705.15c-3.31-7.34-31.42-7.38-69.75,13.82-30.4,16.8-45.29,48.08-50.16,60.31h16.41C480,757.69,552.22,710.77,549.68,705.15Z" style="mix-blend-mode:multiply" fill="url(#I)"/></g><path fill="#41b093" d="M417.68,770.47a65.22,65.22,0,0,0-14.51-31.71C390,723.48,378.05,719.23,375.53,722c-1.92,2.11,21.38,33.53,32.64,48.46Z" class="color41b093 svgShape"/><g mask="url(#J)" fill="#000000" class="color000 svgShape"><path d="M417.68,770.47a65.22,65.22,0,0,0-14.51-31.71C390,723.48,378.05,719.23,375.53,722c-1.92,2.11,21.38,33.53,32.64,48.46Z" style="mix-blend-mode:multiply" fill="url(#K)"/></g><path d="M405.35,831.69c-.4-5.3-2.76-18.66-2.76-18.66l5.77-.37C413.89,817.09,412,828.09,405.35,831.69Z" style="mix-blend-mode:multiply" fill="#cbc7ff" class="colorcbc7ff svgShape"/><path fill="#f29d7e" d="M321.85,753.62c-.5,9.87,13.23,27.18,31.26,40.07s33.37,21.71,42.38,25.76,13.23,5.5,13.92,4.14c.34-.66-.75-1.28-2-1.74,1.25.28,2.55.39,2.86-.23s-.8-1.4-2-2c1.28.4,2.69.62,3.09-.15s-1.18-1.72-2.74-2.38c1.22.33,2.46.48,2.73-.21.48-1.24-6.2-3.82-8.26-4.58,1,.35,2.82,1,3.79,1.22a1.28,1.28,0,0,0,1.43-.89c.09-.42-.37-.65-1.92-1.35-3.1-1.4-10.52-3.87-26.23-13.46S347,772.79,340.67,762.08c-.88-1.48-2.36-4.3-3.19-5.78C333,753,322.39,743.16,321.85,753.62Z" class="colorf29d7e svgShape"/><path fill="#ed6d53" d="M354.27,794.51q3,2.15,5.92,4.12a4.44,4.44,0,0,0,.41-.62,3.62,3.62,0,0,0-6.33-3.5Z" class="colored6d53 svgShape"/><path fill="#0d232b" d="M393.73,805.51a43.54,43.54,0,0,1-5,10.64l2.28,1.17A31.81,31.81,0,0,0,393,814a52.81,52.81,0,0,0,3-7.36C395.3,806.31,394.53,805.93,393.73,805.51Z" class="color0d232b svgShape"/><path fill="#283b42" d="M332,741.27c-6.3,3-11.23,6.92-10.25,13.83a26.52,26.52,0,0,0,4.08,11.11,15.32,15.32,0,0,1,5.92-5.56,16.47,16.47,0,0,1,7.16-1.6C338.68,758.43,332,741.27,332,741.27Z" class="color283b42 svgShape"/><path fill="#9fd4e0" d="M1352.18,1028.1H672.28a4.44,4.44,0,0,0-4.44,4.44h0a4.44,4.44,0,0,0,4.44,4.45h679.9a4.44,4.44,0,0,0,4.44-4.45h0A4.44,4.44,0,0,0,1352.18,1028.1Z" class="color9fd4e0 svgShape"/><path fill="#f29d7e" d="M724,998.39c-3.74,3.33-10.7,9-14,11.63a2.66,2.66,0,0,0-.61,3.46c2.69,4.44,9.72,14.63,17.53,14.63h6.58a3.68,3.68,0,0,0-2.41-3c-1.47-.49-3.59-4.47-4.85-7.11a3.21,3.21,0,0,1,.88-3.9l7.58-6Z" class="colorf29d7e svgShape"/><path fill="#e85f5b" d="M815.82,903c-4.26,9.81-20.26,54.21-40.55,76.65-20.92,23.15-38.33,31.85-38.33,31.85-5.62-2.22-11.38-11.28-13-13.15,0,0,26.29-21.47,38.14-42.58s26.67-63.14,26.67-63.14Z" class="colore85f5b svgShape"/><path d="M815.82,903c-4.26,9.81-20.26,54.21-40.55,76.65-20.92,23.15-38.33,31.85-38.33,31.85-5.62-2.22-11.38-11.28-13-13.15,0,0,26.29-21.47,38.14-42.58s26.67-63.14,26.67-63.14Z" style="mix-blend-mode:multiply" fill="#cbc7ff" class="colorcbc7ff svgShape"/><path fill="#f29d7e" d="M856.83,1028H833.32a2.34,2.34,0,0,1-2.33-2.21c-.14-2.65-.45-7.49-1.06-13.43a135.37,135.37,0,0,0,13.48-1.48l.51,8.56a3.25,3.25,0,0,0,2.18,2.88c2.75.94,7.46,2.58,8.92,3.18C857.11,1026.38,856.83,1028,856.83,1028Z" class="colorf29d7e svgShape"/><path fill="#e85f5b" d="M847.3,1010.24l-3.89.66a102.12,102.12,0,0,1-14.26,2.12c-1.22-11.92-3.95-34.58-8.7-46.47-8.4-21-30.18-37-43-48.88-11.65-10.81-12.22-21.73-4.81-34.81l31.53,19s22,16.2,33.27,46C848.41,976.73,847.3,1010.24,847.3,1010.24Z" class="colore85f5b svgShape"/><path fill="#f29d7e" d="M911.75,907.23s1.87-4.42-4.74-10.17c-5.73-5-30-22.58-36.27-27.1-5.39,1.15-10.8,2.24-16.24,3.07,6,13.19,36,23.18,40.08,25.45,4.57,2.57,7.09,3.6,8.88,5.19s2.12,3.39,2.81,3.25.19-2.77.19-2.77c.61.74,1,4,1.71,3.61s.07-3.27.07-3.27c.76.88.63,3.6,1.38,3.71s.76-2.88.76-2.88Z" class="colorf29d7e svgShape"/><path d="M911.75,907.23s1.87-4.42-4.74-10.17c-5.73-5-30-22.58-36.27-27.1-5.39,1.15-10.8,2.24-16.24,3.07,6,13.19,36,23.18,40.08,25.45,4.57,2.57,7.09,3.6,8.88,5.19s2.12,3.39,2.81,3.25.19-2.77.19-2.77c.61.74,1,4,1.71,3.61s.07-3.27.07-3.27c.76.88.63,3.6,1.38,3.71s.76-2.88.76-2.88Z" style="mix-blend-mode:multiply" fill="#cbc7ff" opacity=".7" class="colorcbc7ff svgShape"/><path fill="#fee6b7" d="M934.32,1026.63a66.95,66.95,0,1,1,32.39-115.14L956.5,922.66a51.82,51.82,0,1,0-25.06,89.11Z" class="colorfee6b7 svgShape"/><path fill="#fcc14a" d="M971,1006.07a66.69,66.69,0,0,1-36.65,20.56l-2.88-14.86a51.81,51.81,0,0,0,25.06-89.11l10.21-11.17A67,67,0,0,1,971,1006.07Z" class="colorfcc14a svgShape"/><path fill="#faf8dc" d="M959.8,995.86a51.81,51.81,0,1,1-3.3-73.2A51.5,51.5,0,0,1,959.8,995.86Z" class="colorfaf8dc svgShape"/><path fill="#184657" d="M850.27,831.4c4.19,10.31,5.42,30,20.36,38.25l-12.22,11.72-23-13.57Z" class="color184657 svgShape"/><path fill="#f29d7e" d="M827.14,829.81c2.23,8.11,12.44,11.66,15,11.53,4.56-.23,2.51,1.23,5.59-1.54-.59-8.72-1.54-10.77.2-13.88,1.92-3.43,16.48-17.63,16.48-17.63L852,797.1s-14.12,14.25-16.78,16.34c-1.6,1.27-6.93,1.75-9.68,2.7C824.58,821.09,825.81,825,827.14,829.81Z" class="colorf29d7e svgShape"/><path d="M847.49,826.8a5.19,5.19,0,0,1,.41-.88c1.92-3.43,16.48-17.63,16.48-17.63L852,797.1s-14.12,14.25-16.78,16.34a3.32,3.32,0,0,1-1.49.66Z" style="mix-blend-mode:multiply" fill="url(#L)"/><path d="M852.6,817.43a11.38,11.38,0,0,0,1.61,1.2c4.63-5.15,9-9.89,9-9.89L854.18,801C849.62,807,848.33,813.76,852.6,817.43Z" style="mix-blend-mode:multiply" fill="#cbc7ff" opacity=".58" class="colorcbc7ff svgShape"/><path fill="#e85f5b" d="M855.73,783.4c-3.67,2.43-8.83,4.33-6.81,16.68l5.86,1.43,3-12.22Z" class="colore85f5b svgShape"/><path fill="#f29d7e" d="M872.13,808.63c-2.59,4.11-6.27,9-9.84,9.88-2.37.59-4.31-.66-7.86-4.29s-4.75-10.2-.46-17,9.49-11.28,16.86-6.64C878.94,795.67,876.42,801.81,872.13,808.63Z" class="colorf29d7e svgShape"/><path d="M870.27,804.59a.8.8,0,1,1-.25-1.11A.8.8,0,0,1,870.27,804.59Z" fill="#000000" class="color000 svgShape"/><path fill="#ed6d53" d="M855.35,804.5a5.73,5.73,0,0,1,6.1-9.69Z" class="colored6d53 svgShape"/><path fill="#bd422a" d="M856.79,802.21A3,3,0,0,1,860,797.1Z" class="colorbd422a svgShape"/><path fill="#ed6d53" d="M867.15 807.8a2.51 2.51 0 11-.79-3.46A2.52 2.52 0 01867.15 807.8zM872.85 805.55l.49 5.8a.93.93 0 01-1.26.95l-2.92-1.15z" class="colored6d53 svgShape"/><path fill="#e85f5b" d="M860.77,796l-2.46,3.77,1.29.92a31.28,31.28,0,0,1,2.78-3.83Z" class="colore85f5b svgShape"/><path fill="#e85f5b" d="M877.66,788.77c-2.07-3.86-5.09-.68-6.94-6.24-3.54-10.61-14.62-10.29-18.05-6.29-2.27,2.63-8.61-.1-9.26,7.12-.58,6.47,15.49,13.81,17.87,14.17,3.16.47,6.12-1.81,9.36-5,0,0,2.73.43,5.58,5.63C878.76,797.82,880.77,794.58,877.66,788.77Z" class="colore85f5b svgShape"/><path fill="#ed6d53" d="M868.36 800.52a6.27 6.27 0 011.35.3 7.4 7.4 0 011.26.55 6.12 6.12 0 011.15.81 4.85 4.85 0 01.49.52l.21.29.09.15 0 .07v0s0 0 0 0-.26-.06-.29 0a.25.25 0 01.34 0 .24.24 0 010 .34.27.27 0 01-.33 0l0 0 0 0-.07 0-.14-.1-.27-.17-.53-.33-1.1-.64c-.74-.42-1.51-.81-2.26-1.31h0a.24.24 0 01-.07-.34A.24.24 0 01868.36 800.52zM868 813.23l.5.44c-.15.2-.33.43-.53.66a6.37 6.37 0 01-.77-.64c-.93-.9-1.38-1.81-1-2S867.1 812.33 868 813.23z" class="colored6d53 svgShape"/><path fill="#184657" d="M847.82,826.2s-2.16,3.67-9.09.08-9.88-11.54-9.88-11.54-19,3.12-39,33.8a365.48,365.48,0,0,0-20,35.92s12.22,18.58,46.85,19.32c4.07-7.9,12.19-24.4,27.46-40.67C853,853.74,856.38,841.93,847.82,826.2Z" class="color184657 svgShape"/><path d="M850.38,832c5,10.31,2.35,37.4,2.35,37.4l-6.67-9C848.51,856.19,850.7,838.93,850.38,832Z" style="mix-blend-mode:multiply" fill="#cbc7ff" class="colorcbc7ff svgShape"/><path d="M889.64,922.11a38.65,38.65,0,0,0-22.35-.86s5.31-7,9.26-9.51S889.64,922.11,889.64,922.11Z" style="mix-blend-mode:multiply" fill="#cbc7ff" opacity=".7" class="colorcbc7ff svgShape"/><path d="M811.37,833.07c.28,12.79,6.57,46.08,14.73,53.43L836.28,872Z" style="mix-blend-mode:multiply" fill="#cbc7ff" class="colorcbc7ff svgShape"/><path fill="#f29d7e" d="M811.5,831c-2.85,10.37,11.75,28.9,27.89,46.82s30.38,30.89,39,37.3,12.77,9,13.84,7.66c.51-.62-.5-1.53-1.67-2.3,1.26.58,2.61,1,3.09.42s-.52-1.68-1.66-2.56c1.27.72,2.71,1.29,3.32.56s-.86-2.1-2.36-3.17c1.22.64,2.51,1.09,2.95.42.8-1.2-5.69-5.51-7.7-6.8.93.59,2.76,1.72,3.73,2.18a1.39,1.39,0,0,0,1.73-.61c.2-.43-.23-.77-1.72-1.88-3-2.22-9.21-7.26-23.66-21.13S842,851.13,836.43,838.79C828,820.27,814.52,820,811.5,831Z" class="colorf29d7e svgShape"/><path fill="#ed6d53" d="M841.76,880.25q2.7,3,5.33,5.77a5.19,5.19,0,0,0,.58-.57,3.94,3.94,0,0,0-5.91-5.2Z" class="colored6d53 svgShape"/><path fill="#265161" d="M845.09,884.19c5-1.9,10.46-7.15,12.28-9-9.37-12.74-16.81-27.46-20.92-36.52-8.46-18.68-22.1-18.94-25.15-7.85C808.42,841.27,823.15,860,839.44,878Q842.31,881.22,845.09,884.19Z" class="color265161 svgShape"/><path fill="#e289a9" d="M855,1025.52c-1.46-.6-6.17-2.24-8.92-3.18a3.3,3.3,0,0,1-1.58-1.19,9.23,9.23,0,0,1-3.33,1.31c-2.33.44-8.07-.21-10.44-.51.11,1.56.19,2.86.24,3.86a2.34,2.34,0,0,0,2.33,2.21h23.51S857.11,1026.38,855,1025.52Z" class="colore289a9 svgShape"/><path fill="#0d232b" d="M856.45,1026.6H833a2.32,2.32,0,0,1-2-1.23c0,.15,0,.31,0,.44a2.34,2.34,0,0,0,2.33,2.21h23.51A2.08,2.08,0,0,0,856.45,1026.6Z" class="color0d232b svgShape"/><path fill="#e289a9" d="M733.52,1028.11a3.68,3.68,0,0,0-2.41-3c-1.47-.49-3.59-4.47-4.85-7.11a3.09,3.09,0,0,1-.31-1.45c-6.29.75-9.4-3.12-13-8.88l-3,2.4a2.66,2.66,0,0,0-.61,3.46c2.69,4.44,9.72,14.63,17.53,14.63Z" class="colore289a9 svgShape"/><path fill="#184657" d="M727.87,1026.88c-7.82,0-14.84-10.19-17.54-14.63a2.7,2.7,0,0,1-.22-2.31l-.09.08a2.66,2.66,0,0,0-.61,3.46c2.69,4.44,9.72,14.63,17.53,14.63h6.58a3.91,3.91,0,0,0-.37-1.23Z" class="color184657 svgShape"/><path fill="#e6e5ce" d="M823.58 866.16c-.16-.06-15.46-6.52-23.32-13.64l.5-.55c7.76 7 23 13.45 23.1 13.51zM818.15 873.82c-.16-.07-15.46-6.53-23.32-13.65l.5-.55c7.76 7 22.95 13.45 23.1 13.51zM813.81 880.62c-.16-.06-15.77-5.72-24-12.42l.47-.57c8.12 6.62 23.61 12.24 23.77 12.29zM809.32 889.13c-.16-.06-16-5.21-24.37-11.65l.45-.59c8.32 6.36 24 11.48 24.15 11.53z" class="colore6e5ce svgShape"/><path fill="#307b97" d="M1659.83,1004c3.18,3.86,4.84,4.65,7.66,7.76a2.68,2.68,0,0,1,.07,3.52c-3.35,4-11.86,13-19.59,11.75l-6.49-1a3.66,3.66,0,0,1,2.85-2.64c1.53-.26,4.24-3.86,5.89-6.27a3.21,3.21,0,0,0-.27-4l-6.56-7.13Z" class="color307b97 svgShape"/><path fill="#41b093" d="M1578.36,887.48c2.69,10.36,12.77,58.89,29.35,84.2a157.67,157.67,0,0,0,39.9,41.16c5.89-1.33,10.37-7.3,12.22-8.89,0,0-27-31.16-35.45-53.84-4.81-12.94-10.47-36.52-12.7-47.38a139.32,139.32,0,0,0,3.52-21.36Z" class="color41b093 svgShape"/><path d="M1578.36,887.48c2.69,10.36,12.77,58.89,29.35,84.2a157.67,157.67,0,0,0,39.9,41.16c5.89-1.33,10.37-7.3,12.22-8.89,0,0-27-31.16-35.45-53.84-4.81-12.94-10.47-36.52-12.7-47.38a139.32,139.32,0,0,0,3.52-21.36Z" style="mix-blend-mode:multiply" fill="#cbc7ff" opacity=".7" class="colorcbc7ff svgShape"/><path fill="#307b97" d="M1500.63,1026.74l26.59.32a2.65,2.65,0,0,0,2.67-2.47c.19-3,.72-10.68,1.49-17.38-6.3-.31-15.49-1-15.49-1l-.54,11.06a3.68,3.68,0,0,1-2.51,3.22c-3.12,1-8.47,2.82-10.13,3.48C1500.33,1024.89,1500.63,1026.74,1500.63,1026.74Z" class="color307b97 svgShape"/><path fill="#41b093" d="M1514.26,1014.85s13.44,1.3,19,1.86c2-11.81,10.78-42.71,14.46-53.6,7.24-21.42,25.87-46.55,39.42-55.13,11.76-7.44,21.07-18.47,22.11-25l-34.55-20.2s-32.64,37.57-45.8,79.76C1519.7,972.06,1514.26,1014.85,1514.26,1014.85Z" class="color41b093 svgShape"/><path fill="#f29d7e" d="M1523.43,731.6s3.9-2.8,11,2.38c6.14,4.5,39.14,33.83,44.93,38.95.06,5.51.19,11,.58,16.51-14.18-2.91-41.07-39.57-44.17-43-3.5-3.89-5.07-6.12-7-7.52s-3.78-1.32-3.79-2,2.66-.8,2.66-.8c-.85-.44-4.1-.07-3.89-.88s3.17-.78,3.17-.78c-1-.55-3.65.17-3.92-.54s2.64-1.37,2.64-1.37Z" class="colorf29d7e svgShape"/><path d="M1523.43,731.6s3.9-2.8,11,2.38c6.14,4.5,39.14,33.83,44.93,38.95.06,5.51.19,11,.58,16.51-14.18-2.91-41.07-39.57-44.17-43-3.5-3.89-5.07-6.12-7-7.52s-3.78-1.32-3.79-2,2.66-.8,2.66-.8c-.85-.44-4.1-.07-3.89-.88s3.17-.78,3.17-.78c-1-.55-3.65.17-3.92-.54s2.64-1.37,2.64-1.37Z" style="mix-blend-mode:multiply" fill="#cbc7ff" opacity=".7" class="colorcbc7ff svgShape"/><rect width="1.48" height="97.9" x="1493.37" y="657.51" fill="#035e80" transform="rotate(-50.73 1494.139 706.465)" class="color035e80 svgShape"/><path fill="#184657" d="M1621.59,796.57c-12.64-5.32-22.45-9-31.44-15.18-3.52-2.41-29.66-26.43-34.72-29.88L1548.52,762c5,5.11,42.89,41.13,49.46,43.65Z" class="color184657 svgShape"/><path fill="#f29d7e" d="M1628.38,814.61c-8.13,2.12-16.3-5-17.46-7.21-2.07-4.07-2.32-1.56-1.46-5.61,7.85-3.84,10.1-4,11.93-7.11,2-3.37,7-23.08,7-23.08l15.86,5.12s-5.29,19.35-5.78,22.7c-.3,2,1.94,6.88,2.5,9.74C1637.22,812.48,1633.25,813.35,1628.38,814.61Z" class="colorf29d7e svgShape"/><path d="M1620.84,795.48a6.47,6.47,0,0,0,.55-.8c2-3.37,7-23.08,7-23.08l15.86,5.12s-5.29,19.35-5.78,22.7a3.35,3.35,0,0,0,.18,1.62Z" style="mix-blend-mode:multiply" fill="url(#M)"/><path d="M1626.4,786.38a12.43,12.43,0,0,1-1.84-.8c2.15-6.58,4-12.78,4-12.78l11.23,4C1636.92,783.75,1631.71,788.24,1626.4,786.38Z" style="mix-blend-mode:multiply" fill="#cbc7ff" opacity=".58" class="colorcbc7ff svgShape"/><path fill="#f29d7e" d="M1624.27,765.06c-2.26,4.29-4.65,9.91-3.64,13.45.67,2.35,2.72,3.41,7.64,4.67s11.21-1,15-8.1,5-13.85-2.66-17.92C1632.1,752.69,1628,757.93,1624.27,765.06Z" class="colorf29d7e svgShape"/><path fill="#0d232b" d="M1655.56,769.15c3.13,8.79-6,10.32-4.12,17.55-6.41,4.28-19.39,1.95-12.34-10.17l9.1-8.69Z" class="color0d232b svgShape"/><path d="M1628.7,764.65a.81.81,0,1,0,1.09-.34A.81.81,0,0,0,1628.7,764.65Z" fill="#000000" class="color000 svgShape"/><path fill="#ed6d53" d="M1636.23,777.53a5.72,5.72,0,0,0,5.35-10.12Z" class="colored6d53 svgShape"/><path fill="#bd422a" d="M1637.5,775.14a3,3,0,0,0,2.81-5.33Z" class="colorbd422a svgShape"/><path fill="#ed6d53" d="M1627.48 769a2.51 2.51 0 103.39-1.05A2.5 2.5 0 001627.48 769zM1626.58 762.9l-5.27 2.46a.93.93 0 00-.19 1.57l2.45 2z" class="colored6d53 svgShape"/><path fill="#0d232b" d="M1640.85,768.61l-2,4-1.44-.66a32.63,32.63,0,0,0,1.93-4.31Z" class="color0d232b svgShape"/><path fill="#0d232b" d="M1631.74,747.44c4-1.82,3.13,3.74,8.88,2.68,8.11-1.5,14.2,4.7,13.2,10-.64,3.41,7.89,8.17,1.55,14.31-4.67,4.5-15.67-2.66-17.16-4.54-2-2.51-3.07-4.17-2-8.55,0,0,.94-5.21-5-5.08C1628.32,755.33,1625.65,750.23,1631.74,747.44Z" class="color0d232b svgShape"/><path fill="#ed6d53" d="M1632.87 764.64c-.82-.4-1.53-.87-2.27-1.3-.36-.22-.73-.43-1.1-.63l-.56-.3-.28-.15-.15-.07-.08 0 0 0 0 0a.3.3 0 01-.16-.29.24.24 0 01.28-.19.23.23 0 01.19.28c0-.07 0-.25-.13-.26s0 0 0 0h.29l.35 0a5 5 0 01.69.17 5.73 5.73 0 011.28.59 7.52 7.52 0 011.11.81 6.4 6.4 0 01.93 1 .25.25 0 010 .35.25.25 0 01-.26 0zM1622.34 770.9c-.22-.06-.44-.14-.64-.21-.1.23-.2.5-.3.79a6.84 6.84 0 00.94.35c1.24.36 2.25.29 2.26-.16S1623.58 771.26 1622.34 770.9z" class="colored6d53 svgShape"/><path fill="#184657" d="M1621.74,794s-2.77,4.3,3.09,7c6.3,2.87,14.81,1.2,14.81,1.2s8.71,19.9-10.32,53.43a209.82,209.82,0,0,0-14.12,29.43s-25.92,0-48.63-19.51c7.9-23.45,18.93-28.72,25.86-49.93C1596.57,803,1603.63,795.74,1621.74,794Z" class="color184657 svgShape"/><path d="M1625.63,823.87c-11.41,5.77-32.27,15.35-43.75,12.88,4.72-5.09,10.83-20.83,12.12-25.36Z" style="mix-blend-mode:multiply" fill="#cbc7ff" opacity=".7" class="colorcbc7ff svgShape"/><path fill="#f29d7e" d="M1624.43,824.36c-10.31,3-29.11-11.21-47.33-27s-42-39.31-48.55-47.81-9.19-12.6-7.93-13.68c.62-.53,1.55.47,2.34,1.62-.61-1.25-1-2.59-.48-3.09s1.69.5,2.59,1.62c-.75-1.25-1.34-2.69-.62-3.3s2.12.81,3.21,2.29c-.66-1.21-1.13-2.48-.48-2.94,1.2-.83,5.62,5.59,7,7.57-.61-.92-1.77-2.73-2.25-3.69a1.4,1.4,0,0,1,.57-1.74c.43-.21.79.22,1.92,1.68,2.27,2.93,7.43,9.08,21.57,23.26s47.81,35.07,60.25,40.43C1634.86,807.62,1635.37,821.13,1624.43,824.36Z" class="colorf29d7e svgShape"/><path fill="#265161" d="M1544.32,767.31c1.8-5.08,7.41-9,9.23-10.85,15.06,15.55,53.63,39.15,62.77,43.09,18.84,8.11,19.35,21.75,8.32,25-10.41,3.08-29.37-11.3-47.75-27.25C1574.73,795.43,1546.91,770.76,1544.32,767.31Z" class="color265161 svgShape"/><path fill="#035e80" d="M1502.71,1023.94c1.66-.66,7-2.45,10.13-3.48a3.7,3.7,0,0,0,1.8-1.32,10.81,10.81,0,0,0,3.76,1.53c2.62.52,9.13-.13,11.81-.44-.14,1.76-.25,3.23-.32,4.36a2.65,2.65,0,0,1-2.67,2.47l-26.59-.32S1500.33,1024.89,1502.71,1023.94Z" class="color035e80 svgShape"/><path fill="#e6e5ce" d="M1501.08,1025.14l26.51.32a2.63,2.63,0,0,0,2.33-1.36c0,.16,0,.34,0,.49a2.65,2.65,0,0,1-2.67,2.47l-26.59-.32A2.4,2.4,0,0,1,1501.08,1025.14Z" class="colore6e5ce svgShape"/><path fill="#035e80" d="M1641.48,1026a3.66,3.66,0,0,1,2.85-2.64c1.53-.26,4.24-3.86,5.89-6.27a3.09,3.09,0,0,0,.53-1.39c6.1,1.72,9.77-1.64,14.2-6.77l2.54,2.82a2.68,2.68,0,0,1,.07,3.52c-3.35,4-11.86,13-19.59,11.75Z" class="color035e80 svgShape"/><path fill="#e6e5ce" d="M1647.25,1025.61c7.73,1.21,16.24-7.77,19.59-11.74a2.69,2.69,0,0,0,.57-2.25l.08.09a2.68,2.68,0,0,1,.07,3.52c-3.35,4-11.86,13-19.59,11.75l-6.49-1a3.83,3.83,0,0,1,.55-1.16Z" class="colore6e5ce svgShape"/><path d="M1207.11,904.7a14.43,14.43,0,0,0-14.43,14.43v109h28.86v-109A14.43,14.43,0,0,0,1207.11,904.7Z" style="mix-blend-mode:multiply" fill="#cbc7ff" opacity=".7" class="colorcbc7ff svgShape"/><path fill="#035e80" d="M618.07,567.1h0a.75.75,0,0,1-.72-.77l9.88-269.83a.73.73,0,0,1,.76-.71.74.74,0,0,1,.72.76l-9.88,269.84A.73.73,0,0,1,618.07,567.1Z" class="color035e80 svgShape"/><path fill="#f29d7e" d="M629.68,285.79c-2.1,1.23-4.57,5.8-4.57,5.8s4.19,8.14,4.57,8a83.22,83.22,0,0,0,5.92-6.91Z" class="colorf29d7e svgShape"/><path fill="#f5b096" d="M623,287c3.83,2.22,8.39,5.19,8.27,8.64a37.79,37.79,0,0,1-1,6.91l-12.59-8.39Z" class="colorf5b096 svgShape"/><path fill="#e85f5b" d="M605.6,204c1.25-1,3.66.09,3.66.09L606,206Z" class="colore85f5b svgShape"/><path fill="#fcc14a" d="M595.73,384.91s-1.23,3.58-.62,4.56,1.85.74,9.38.74,15.8.87,16.17-.49-2.09-1.73-5.8-2.84-4.93-2.84-4.93-2.84Z" class="colorfcc14a svgShape"/><path fill="#184657" d="M620.32,388.76c-1.42,1-9,.22-16,.22-7.53,0-8.76.25-9.38-.74l0-.06a2.34,2.34,0,0,0,.15,1.29c.62,1,1.85.74,9.38.74s15.8.87,16.17-.49A.86.86,0,0,0,620.32,388.76Z" class="color184657 svgShape"/><path fill="#fcc14a" d="M539.64,381.89s-1.91,3.13-1.43,4.19,1.9.19,9,2.78c5.83,2.13,16,1.91,16.66.83,1.3-2.1-2.32-1.25-5.83-2.87s-4.2-3.81-4.2-3.81Z" class="colorfcc14a svgShape"/><path fill="#184657" d="M563.89,388.51c-1.6.92-10.95,1-16.46-1-7.07-2.58-8.5-1.71-9-2.78a.91.91,0,0,1-.06-.26,2.56,2.56,0,0,0-.18,1.62c.47,1.06,1.9.19,9,2.78,5.83,2.13,16,1.91,16.66.83C564.21,389.1,564.18,388.75,563.89,388.51Z" class="color184657 svgShape"/><path fill="#0d232b" d="M595.61,270.11c7.16,25.18,10.12,34.56,13.82,66.41s1.85,48.33,1.85,48.33c-3.32,1.09-13.39,1.09-16.78.49,0,0-2.35-31.29-5.07-49.31s-19.25-63.95-19.25-63.95Z" class="color0d232b svgShape"/><path fill="#0d232b" d="M559.32,250.17c-10.87,18.46-10.14,32.38-9.88,69.81.25,35.3-10.31,62.12-10.31,62.12,3.59,1.73,13.06,4.81,17.87,3.7,0,0,14.91-32.25,16.39-64.34,1.5-32.56.74-47.4.74-47.4l20.18-2.22Z" class="color0d232b svgShape"/><path fill="#e85f5b" d="M585.52,211.75c-11.85,10.93-20.83,28.06-26.2,38.42,0,0,8.14,12,22.21,17.59s14.63,3.89,14.63,3.89,17.22-27.4,26.66-36.1c0,0-4.25-10.74-17.77-15.19S585.52,211.75,585.52,211.75Z" class="colore85f5b svgShape"/><path d="M580.79,220.55c-3.51,10.74-3,45.36-3,45.36s12.41,5.56,16.48,5.93L605.23,258s-7-15.68-9.62-27.09S580.79,220.55,580.79,220.55Z" style="mix-blend-mode:multiply" fill="#cbc7ff" class="colorcbc7ff svgShape"/><path fill="#e85f5b" d="M602.5,206.29c-18.88,1.3-22.45,9.23-23,21.85-.56,12.78,2.12,29,13.33,45.92a59.73,59.73,0,0,0,25.74,21.66l6.11-9.25A78.32,78.32,0,0,1,605.42,268c-10.74-14.81-9.81-37.09-9.81-37.09l24.19,3.7a39.18,39.18,0,0,1,14.57,22c3.7,14.81-5.44,28.64-5.44,28.64l6.11,9.26s9-4.94,11.11-24.63c2.33-21.8-8.57-41.66-17.71-50.05S602.5,206.29,602.5,206.29Z" class="colore85f5b svgShape"/><path fill="#f29d7e" d="M616.67,216.38a4,4,0,0,1,.63-3c1.26-2.5,11.73-12.55,11.73-12.55l-8.8-8S610.18,203,608.29,204.5c-1.14.9-4.06,1.21-6,1.88C601.57,209.9,608.8,218.14,616.67,216.38Z" class="colorf29d7e svgShape"/><path d="M617,214a3.35,3.35,0,0,1,.29-.62c1.36-2.45,11.73-12.55,11.73-12.55l-8.8-8S610.18,203,608.29,204.5a2.31,2.31,0,0,1-1.06.46Z" style="mix-blend-mode:multiply" fill="url(#N)"/><path d="M618.7,209.37a7.93,7.93,0,0,0,1.14.86c3.3-3.67,6.45-7,6.45-7l-6.47-5.49C616.58,202,615.66,206.76,618.7,209.37Z" style="mix-blend-mode:multiply" fill="#cbc7ff" opacity=".58" class="colorcbc7ff svgShape"/><path fill="#f29d7e" d="M621,187.41c-3,4.69-6.62,13.63-1.76,18.33,8.15,7.87,13.8-2.16,17.87-8.58Z" class="colorf29d7e svgShape"/><path fill="#035e80" d="M621,187.41s7.7,9.75,20.31,12.09c8,1.48,9.81-11.35,1.66-13.39a12.93,12.93,0,0,0-7.9-6.85C625.85,176.67,621,187.41,621,187.41Z" class="color035e80 svgShape"/><path fill="#035e80" d="M617.83,193.08l3-.37,3.08-4-.86-4.62s-2.22,3-3.21,4.69A33.65,33.65,0,0,0,617.83,193.08Z" class="color035e80 svgShape"/><polygon fill="#035e80" points="624.94 190.81 623.5 192.71 624.61 193.21 626.4 191.6 624.94 190.81" class="color035e80 svgShape"/><path d="M628.88,196.07a.52.52,0,0,1-.88-.54.52.52,0,1,1,.88.54Z" fill="#000000" class="color000 svgShape"/><path fill="#ed6d53" d="M626.22 197.76a1.6 1.6 0 11-2.71-1.7 1.6 1.6 0 012.71 1.7zM632.19 198.24V202a.6.6 0 01-.86.53l-1.8-.9zM621.74 195.38a3.66 3.66 0 114.19-6z" class="colored6d53 svgShape"/><path fill="#bd422a" d="M622.73,194a1.92,1.92,0,0,1-.48-2.68,2,2,0,0,1,2.69-.48Z" class="colorbd422a svgShape"/><path fill="#ee8c89" d="M602.27,206.38c2.32-1.66,3.33-2.4,3.33-2.4s1.67,5,4,7.5,5.46,5.27,5.46,5.27-5.65-.09-9.45-3.24A8.6,8.6,0,0,1,602.27,206.38Z" class="coloree8c89 svgShape"/><path fill="#ee8c89" d="M615,216.8l3.33-4.91,1.16,1.76s-1.25,2.27-2.87,2.78S615,216.8,615,216.8Z" class="coloree8c89 svgShape"/><rect width="85.95" height="15.31" x="537.06" y="390.34" style="mix-blend-mode:multiply" fill="#cbc7ff" class="colorcbc7ff svgShape"/><path fill="#f29d7e" d="M829.52 322.38c-3 20.3-3.87 58.39-3.87 58.39l10.8 1.2s6.06-43.83 8.81-58.21zM884.32 322.07c3.29 20.26 4.66 58.33 4.66 58.33l-10.79 1.34s-6.65-43.74-9.59-58.09z" class="colorf29d7e svgShape"/><path fill="#ed6d53" d="M840.75 327.57a3.64 3.64 0 11-3.64-3.64A3.64 3.64 0 01840.75 327.57zM880.5 327.57a3.64 3.64 0 11-3.64-3.64A3.64 3.64 0 01880.5 327.57z" class="colored6d53 svgShape"/><path fill="#184657" d="M831.62,256.28c-3.46,22-5.68,68.14-5.68,68.14s3.7,2.72,12.35,3,11.1-1,11.1-1l6.77-55.72a.38.38,0,0,1,.76,0L863,325.16s3,1.73,12.59,1.24,11.11-4.2,11.11-4.2-.74-44.93-8.39-63.2Z" class="color184657 svgShape"/><path fill="#fcc14a" d="M833.78,216.48s-4.07,21.78-4.63,39.56c0,0,15,13.21,28.89,12.09A27.34,27.34,0,0,0,878.28,257L873,211.85Z" class="colorfcc14a svgShape"/><path d="M838.69 218.14c.74 7 3.51 27 5.09 31.29s10.92 24.44 10.92 24.44-16.48-20.55-18.05-27.49S838.69 218.14 838.69 218.14zM869.79 216.2s8.52 14.16 8.15 21.48-3.24 20.92-5.46 26.47-8.89 12.59-8.89 12.59 5-16.57 6.85-30.64S869.79 216.2 869.79 216.2z" style="mix-blend-mode:multiply" fill="#cbc7ff" opacity=".44" class="colorcbc7ff svgShape"/><path fill="#f29d7e" d="M824.5,233.16c1.46,20.42,17.32,42.9,29.9,50.11s6.43-4.64,4.05-5.82-9.28-9.88-15.23-22.46-5.55-22-5.55-22Z" class="colorf29d7e svgShape"/><path fill="#f29d7e" d="M875.26,234.25c.18,11.3-3.52,35.55-13.34,44.25s3.34,7.59,8.71,2.23,15.73-21.11,16.48-46.66Z" class="colorf29d7e svgShape"/><path fill="#fcc14a" d="M827.48,208.33c2.81-7.27,16.85-13.33,28.33-13.52s25.18,5.56,27.78,14.82,4.63,18.88,4.81,25.36c0,0-7.41,2.41-13.89.93,0-5-2.79-16.61-5-20H839.89c-1.21,4.45-1.34,15.77-1.11,19.44,0,0-8,2-14.81.37C824,235.73,822.49,221.29,827.48,208.33Z" class="colorfcc14a svgShape"/><path fill="#f29d7e" d="M849.7,188.89c-.12,2.53-.24,6.17-1.29,8.82,0,0,6.05,6.18,8.33,6.18s7.41-6.49,7.41-6.49-1.06-.58-1.24-2.76a44.06,44.06,0,0,1,0-5.14Z" class="colorf29d7e svgShape"/><path d="M862.85,193.76a55,55,0,0,1,.69-10.13l-13.5,0s-.18,4.34-.52,9.11c1.42,2.1,3.58,4.57,6.79,4.63C859.76,197.41,861.55,195.43,862.85,193.76Z" style="mix-blend-mode:multiply" fill="#cbc7ff" opacity=".7" class="colorcbc7ff svgShape"/><path fill="#f3a386" d="M866.18,181.3c0,6.85-4.13,12.34-9.63,12.4s-9.62-5.55-9.62-12.4,4.31-12.41,9.62-12.41S866.18,174.44,866.18,181.3Z" class="colorf3a386 svgShape"/><path d="M851.87 184.66a.52.52 0 11-.16-.71A.52.52 0 01851.87 184.66zM861.81 184.9a.52.52 0 11-.88-.55.52.52 0 01.88.55z" fill="#000000" class="color000 svgShape"/><path fill="#ed6d53" d="M851.37 187.52a1.6 1.6 0 11-.5-2.21A1.6 1.6 0 01851.37 187.52zM864.64 187.89a1.6 1.6 0 11-.5-2.21A1.6 1.6 0 01864.64 187.89zM857.2 184.91l1.32 3.48a.6.6 0 01-.62.8l-2-.19zM847.69 185.35a3.66 3.66 0 11-.14-7.31z" class="colored6d53 svgShape"/><path fill="#bd422a" d="M847.65,183.62a1.93,1.93,0,0,1-.07-3.85Z" class="colorbd422a svgShape"/><path d="M848.72,177c2,4.69,5.06,7.71,7.22,8.08a3.33,3.33,0,0,0,3.14-.8s2.23,2.59,4.2,2.72,2-.19,2-.19a31.67,31.67,0,0,0,1.36-6C866.8,178.52,848.72,177,848.72,177Z" style="mix-blend-mode:multiply" fill="#cbc7ff" opacity=".7" class="colorcbc7ff svgShape"/><path fill="#ed6d53" d="M865.55,185.47a3.66,3.66,0,0,0,.13-7.31Z" class="colored6d53 svgShape"/><path fill="#bd422a" d="M865.58,183.74a1.93,1.93,0,1,0,.07-3.85Z" class="colorbd422a svgShape"/><path fill="#184657" d="M858.59,180.56c3.77,2.71,6.78,2.77,8.21.92,2.1-2.71,2.16-11.11-2.22-14.56-2.54-2-4-3.65-6.42-3.71-3.12-.08-4.38.56-8.21,2.9s-3.58,9.57-3.64,12l1,.25.24,3.64s.68.8.74.61.44-5.61.44-5.61,3.93,4.62,6.54,4.81S858.59,180.56,858.59,180.56Z" class="color184657 svgShape"/><path fill="#d6b88d" d="M825.45,377.38a10.11,10.11,0,0,0,5.8,1.6,10.77,10.77,0,0,0,5.92-1.6l-.24,10.37-14.2-.5C824,384.88,825.3,378.6,825.45,377.38Z" class="colord6b88d svgShape"/><path fill="#faf8dc" d="M823.6,384.14c3.42-1.12,4.6-1.61,8-1.76,4-.19,5.37,1.91,5.37,1.91l.31,3.89a2.11,2.11,0,0,1-2.11,2.28H822.49a1.23,1.23,0,0,1-1.11-1.77Z" class="colorfaf8dc svgShape"/><path fill="#0d232b" d="M835.32,389.07H822.67a1.23,1.23,0,0,1-1.12-.74l-.17.36a1.23,1.23,0,0,0,1.11,1.77h12.64a2.11,2.11,0,0,0,2.11-2.28l0-.31A2.09,2.09,0,0,1,835.32,389.07Z" class="color0d232b svgShape"/><path fill="#d6b88d" d="M889.06,377.38a10.11,10.11,0,0,1-5.8,1.6,10.79,10.79,0,0,1-5.93-1.6l.25,10.37,14.19-.5C890.5,384.88,889.21,378.6,889.06,377.38Z" class="colord6b88d svgShape"/><path fill="#faf8dc" d="M890.91,384.14c-3.42-1.12-4.61-1.61-8-1.76-4-.19-5.37,1.91-5.37,1.91l-.31,3.89a2.11,2.11,0,0,0,2.1,2.28H892a1.23,1.23,0,0,0,1.11-1.77Z" class="colorfaf8dc svgShape"/><path fill="#0d232b" d="M879.19,389.07h12.64a1.23,1.23,0,0,0,1.13-.74l.17.36a1.23,1.23,0,0,1-1.11,1.77H879.37a2.11,2.11,0,0,1-2.1-2.28l0-.31A2.09,2.09,0,0,0,879.19,389.07Z" class="color0d232b svgShape"/><path fill="#035e80" d="M855.8 240.74a55.68 55.68 0 01-11-.82l-.15 0V215.58l.21 0c4.68.67 18 1.15 23.14 0l.23-.05V239.9l-.15 0A77.49 77.49 0 01855.8 240.74zM845 239.6c5 1.11 17.62 1 22.84 0V216c-5.29 1.07-18 .63-22.84 0zM881.24 611.79a.75.75 0 01-.74-.7L859.77 280.77a.74.74 0 111.47-.09L882 611a.73.73 0 01-.69.78z" class="color035e80 svgShape"/><path fill="#bce1e9" d="M1554.74 369.13a12.6 12.6 0 110-25.19c.36 0 .71 0 1.06.05a18.91 18.91 0 0135.72.05 13.3 13.3 0 011.55-.1 12.5 12.5 0 015.56 1.3 16.23 16.23 0 1114.3 23.89zM429.11 341.44a24.07 24.07 0 100-48.13 23.8 23.8 0 00-8.21 1.47 37.22 37.22 0 00-71.54-1.55 25.93 25.93 0 10-13.26 48.21zM1022.89 200a12.21 12.21 0 10-4.17-23.68 18.89 18.89 0 00-36.31-.78A13.16 13.16 0 10975.68 200z" class="colorbce1e9 svgShape"/></g></svg>